<svg width="758" height="558" viewBox="0 0 758 558" fill="none" xmlns="http://www.w3.org/2000/svg">
<path opacity="0.1" d="M440.404 83.6671C391.812 81.9828 345.527 66.2808 301.335 49.1159C257.143 31.951 213.36 12.9273 165.934 3.82819C135.427 -2.02317 100.538 -2.83511 75.9605 13.5111C52.3015 29.2534 44.6611 56.4569 40.5558 81.654C37.4635 100.631 35.6456 120.574 44.1111 138.363C49.994 150.689 60.4383 161.057 67.6627 172.867C92.7841 213.974 75.0415 264.657 47.7937 304.784C35.0486 323.613 20.2039 341.57 10.3499 361.614C0.495884 381.657 -4.06553 404.613 4.5542 425.053C13.1069 445.318 33.4722 460.537 55.5347 471.239C100.351 492.981 153.162 499.208 204.659 502.731C318.661 510.501 433.267 507.146 547.564 503.791C589.864 502.536 632.346 501.268 673.962 494.725C697.064 491.095 720.918 485.331 737.688 471.407C758.986 453.732 764.265 423.804 749.99 401.62C726.056 364.452 659.869 355.219 643.139 315.326C633.929 293.37 643.387 268.911 656.77 248.545C685.48 204.855 733.603 166.532 736.138 116.594C737.882 82.2982 714.747 47.9483 678.98 31.7228C641.482 14.7123 589.495 16.8528 561.832 45.0092C533.363 74.0043 483.308 85.1568 440.404 83.6671Z" fill="#7C00FF"/>
<path d="M445.528 507.22L314.723 505.542L315.105 502.187L321.431 446.827H436.305L444.757 502.187L445.401 506.381L445.528 507.22Z" fill="#D0D2D5"/>
<path opacity="0.1" d="M445.401 506.38H380.125L314.723 505.542L315.105 502.187H444.757L445.401 506.38Z" fill="black"/>
<path d="M466.49 503.025H292.922V507.219H466.49V503.025Z" fill="#D0D2D5"/>
<path d="M632.092 114.319C632.099 112.885 631.824 111.464 631.282 110.137C630.74 108.81 629.942 107.602 628.933 106.583C627.925 105.564 626.726 104.754 625.404 104.199C624.083 103.644 622.665 103.355 621.232 103.348H136.508C135.074 103.354 133.655 103.643 132.333 104.197C131.011 104.752 129.811 105.562 128.802 106.581C127.793 107.6 126.994 108.808 126.452 110.135C125.909 111.463 125.634 112.885 125.641 114.319V408.229H632.092V114.319Z" fill="#444053"/>
<path d="M125.641 405.311V439.734C125.641 442.617 126.786 445.382 128.823 447.421C130.861 449.46 133.625 450.605 136.508 450.605H621.232C624.113 450.603 626.875 449.457 628.911 447.419C630.948 445.38 632.092 442.616 632.092 439.734V405.311H125.641Z" fill="#D0D2D5"/>
<path opacity="0.1" d="M613.644 121.801H146.602V386.019H613.644V121.801Z" fill="#6C63FF"/>
<path d="M381.382 437.54C383.097 437.542 384.79 437.153 386.333 436.405C387.876 435.656 389.229 434.567 390.29 433.219C390.612 432.808 390.906 432.375 391.169 431.924L384.958 430.904L391.666 430.958C392.312 429.555 392.665 428.035 392.702 426.491C392.739 424.947 392.459 423.411 391.88 421.979L382.871 426.676L391.183 420.57C390.402 419.23 389.354 418.065 388.104 417.147C386.854 416.229 385.429 415.578 383.918 415.233C382.406 414.889 380.839 414.859 379.316 415.146C377.792 415.433 376.343 416.029 375.059 416.899C373.776 417.769 372.684 418.894 371.853 420.203C371.022 421.512 370.469 422.979 370.228 424.511C369.986 426.043 370.063 427.608 370.451 429.11C370.84 430.611 371.533 432.017 372.487 433.239C373.548 434.582 374.9 435.667 376.441 436.412C377.981 437.157 379.671 437.543 381.382 437.54Z" fill="#6C63FF"/>
<path opacity="0.1" d="M392.703 450.604L444.884 503.025L436.882 450.604H392.703Z" fill="black"/>
<path d="M465.13 169.471H162.064C161.101 169.471 160.32 170.252 160.32 171.215V351.588C160.32 352.551 161.101 353.332 162.064 353.332H465.13C466.093 353.332 466.874 352.551 466.874 351.588V171.215C466.874 170.252 466.093 169.471 465.13 169.471Z" fill="white"/>
<path d="M613.777 121.828H146.902V137.262H613.777V121.828Z" fill="white"/>
<path d="M161.811 124.512H149.441C149.152 124.512 148.918 124.747 148.918 125.036V133.383C148.918 133.672 149.152 133.907 149.441 133.907H161.811C162.1 133.907 162.334 133.672 162.334 133.383V125.036C162.334 124.747 162.1 124.512 161.811 124.512Z" fill="#6C63FF"/>
<path opacity="0.3" d="M449.045 124.512H308.955C308.741 124.512 308.566 124.686 308.566 124.901V133.517C308.566 133.732 308.741 133.907 308.955 133.907H449.045C449.259 133.907 449.434 133.732 449.434 133.517V124.901C449.434 124.686 449.259 124.512 449.045 124.512Z" fill="#6C63FF"/>
<path d="M445.255 130.176H444.913L444.786 130.068C445.216 129.557 445.454 128.911 445.456 128.243C445.453 127.694 445.286 127.159 444.978 126.705C444.67 126.25 444.235 125.897 443.727 125.69C443.219 125.483 442.66 125.432 442.123 125.542C441.585 125.652 441.092 125.919 440.706 126.309C440.32 126.698 440.058 127.194 439.953 127.733C439.849 128.272 439.906 128.829 440.118 129.336C440.329 129.842 440.686 130.274 441.144 130.578C441.601 130.881 442.137 131.043 442.686 131.041C443.354 131.037 443.999 130.8 444.511 130.37L444.638 130.478V130.827L446.785 132.974L447.455 132.303L445.255 130.176ZM442.679 130.176C442.295 130.177 441.92 130.064 441.6 129.852C441.28 129.639 441.03 129.336 440.883 128.982C440.735 128.627 440.696 128.237 440.771 127.86C440.846 127.483 441.03 127.137 441.302 126.865C441.573 126.594 441.919 126.409 442.296 126.334C442.673 126.26 443.063 126.299 443.418 126.446C443.772 126.594 444.075 126.843 444.287 127.163C444.5 127.483 444.613 127.859 444.611 128.243C444.613 128.498 444.564 128.75 444.468 128.985C444.371 129.22 444.229 129.434 444.049 129.614C443.87 129.794 443.656 129.936 443.421 130.032C443.186 130.129 442.934 130.178 442.679 130.176Z" fill="#444053"/>
<path d="M607.071 133.907C609.664 133.907 611.766 131.804 611.766 129.209C611.766 126.615 609.664 124.512 607.071 124.512C604.477 124.512 602.375 126.615 602.375 129.209C602.375 131.804 604.477 133.907 607.071 133.907Z" fill="#6C63FF"/>
<path d="M530.984 154.037H490.642C489.742 154.037 489.012 154.767 489.012 155.668V181.932C489.012 182.832 489.742 183.562 490.642 183.562H530.984C531.884 183.562 532.614 182.832 532.614 181.932V155.668C532.614 154.767 531.884 154.037 530.984 154.037Z" fill="white"/>
<path d="M599.953 154.037H544.425C544.199 154.037 544.016 154.22 544.016 154.446V158.325C544.016 158.551 544.199 158.734 544.425 158.734H599.953C600.179 158.734 600.363 158.551 600.363 158.325V154.446C600.363 154.22 600.179 154.037 599.953 154.037Z" fill="white"/>
<path d="M599.953 164.103H544.425C544.199 164.103 544.016 164.286 544.016 164.512V168.39C544.016 168.616 544.199 168.8 544.425 168.8H599.953C600.179 168.8 600.363 168.616 600.363 168.39V164.512C600.363 164.286 600.179 164.103 599.953 164.103Z" fill="white"/>
<path d="M599.953 174.168H544.425C544.199 174.168 544.016 174.351 544.016 174.577V178.456C544.016 178.682 544.199 178.865 544.425 178.865H599.953C600.179 178.865 600.363 178.682 600.363 178.456V174.577C600.363 174.351 600.179 174.168 599.953 174.168Z" fill="white"/>
<path d="M530.984 200.338H490.642C489.742 200.338 489.012 201.068 489.012 201.969V228.233C489.012 229.134 489.742 229.864 490.642 229.864H530.984C531.884 229.864 532.614 229.134 532.614 228.233V201.969C532.614 201.068 531.884 200.338 530.984 200.338Z" fill="white"/>
<path d="M599.953 200.338H544.425C544.199 200.338 544.016 200.522 544.016 200.748V204.626C544.016 204.852 544.199 205.036 544.425 205.036H599.953C600.179 205.036 600.363 204.852 600.363 204.626V200.748C600.363 200.522 600.179 200.338 599.953 200.338Z" fill="white"/>
<path d="M599.953 210.404H544.425C544.199 210.404 544.016 210.587 544.016 210.813V214.692C544.016 214.918 544.199 215.101 544.425 215.101H599.953C600.179 215.101 600.363 214.918 600.363 214.692V210.813C600.363 210.587 600.179 210.404 599.953 210.404Z" fill="white"/>
<path d="M599.92 220.469H544.458C544.214 220.469 544.016 220.668 544.016 220.912V224.724C544.016 224.968 544.214 225.166 544.458 225.166H599.92C600.164 225.166 600.363 224.968 600.363 224.724V220.912C600.363 220.668 600.164 220.469 599.92 220.469Z" fill="white"/>
<path d="M530.984 246.639H490.642C489.742 246.639 489.012 247.369 489.012 248.27V274.534C489.012 275.434 489.742 276.164 490.642 276.164H530.984C531.884 276.164 532.614 275.434 532.614 274.534V248.27C532.614 247.369 531.884 246.639 530.984 246.639Z" fill="white"/>
<path d="M599.92 246.639H544.458C544.214 246.639 544.016 246.837 544.016 247.082V250.893C544.016 251.138 544.214 251.336 544.458 251.336H599.92C600.164 251.336 600.363 251.138 600.363 250.893V247.082C600.363 246.837 600.164 246.639 599.92 246.639Z" fill="white"/>
<path d="M599.92 256.705H544.458C544.214 256.705 544.016 256.903 544.016 257.147V260.959C544.016 261.203 544.214 261.402 544.458 261.402H599.92C600.164 261.402 600.363 261.203 600.363 260.959V257.147C600.363 256.903 600.164 256.705 599.92 256.705Z" fill="white"/>
<path d="M599.92 266.77H544.458C544.214 266.77 544.016 266.968 544.016 267.213V271.024C544.016 271.269 544.214 271.467 544.458 271.467H599.92C600.164 271.467 600.363 271.269 600.363 271.024V267.213C600.363 266.968 600.164 266.77 599.92 266.77Z" fill="white"/>
<path d="M530.984 292.94H490.642C489.742 292.94 489.012 293.67 489.012 294.571V320.835C489.012 321.735 489.742 322.465 490.642 322.465H530.984C531.884 322.465 532.614 321.735 532.614 320.835V294.571C532.614 293.67 531.884 292.94 530.984 292.94Z" fill="white"/>
<path d="M599.92 292.94H544.458C544.214 292.94 544.016 293.138 544.016 293.383V297.194C544.016 297.439 544.214 297.637 544.458 297.637H599.92C600.164 297.637 600.363 297.439 600.363 297.194V293.383C600.363 293.138 600.164 292.94 599.92 292.94Z" fill="white"/>
<path d="M599.92 303.005H544.458C544.214 303.005 544.016 303.204 544.016 303.448V307.26C544.016 307.504 544.214 307.703 544.458 307.703H599.92C600.164 307.703 600.363 307.504 600.363 307.26V303.448C600.363 303.204 600.164 303.005 599.92 303.005Z" fill="white"/>
<path d="M599.92 313.071H544.458C544.214 313.071 544.016 313.269 544.016 313.514V317.325C544.016 317.57 544.214 317.768 544.458 317.768H599.92C600.164 317.768 600.363 317.57 600.363 317.325V313.514C600.363 313.269 600.164 313.071 599.92 313.071Z" fill="white"/>
<path d="M530.984 339.241H490.642C489.742 339.241 489.012 339.971 489.012 340.872V367.136C489.012 368.036 489.742 368.766 490.642 368.766H530.984C531.884 368.766 532.614 368.036 532.614 367.136V340.872C532.614 339.971 531.884 339.241 530.984 339.241Z" fill="white"/>
<path d="M599.92 339.241H544.458C544.214 339.241 544.016 339.439 544.016 339.684V343.496C544.016 343.74 544.214 343.938 544.458 343.938H599.92C600.164 343.938 600.363 343.74 600.363 343.496V339.684C600.363 339.439 600.164 339.241 599.92 339.241Z" fill="white"/>
<path d="M599.92 349.307H544.458C544.214 349.307 544.016 349.505 544.016 349.749V353.561C544.016 353.806 544.214 354.004 544.458 354.004H599.92C600.164 354.004 600.363 353.806 600.363 353.561V349.749C600.363 349.505 600.164 349.307 599.92 349.307Z" fill="white"/>
<path d="M599.92 359.372H544.458C544.214 359.372 544.016 359.57 544.016 359.814V363.626C544.016 363.871 544.214 364.069 544.458 364.069H599.92C600.164 364.069 600.363 363.871 600.363 363.626V359.814C600.363 359.57 600.164 359.372 599.92 359.372Z" fill="white"/>
<path opacity="0.1" d="M273.517 218.194H204.539V221.771H273.517V218.194Z" fill="#6C63FF"/>
<path opacity="0.1" d="M217.309 199.285H210.668V218.194H217.309V199.285Z" fill="#6C63FF"/>
<path opacity="0.1" d="M227.016 199.285H220.375V218.194H227.016V199.285Z" fill="#6C63FF"/>
<path opacity="0.1" d="M236.723 199.285H230.082V218.194H236.723V199.285Z" fill="#6C63FF"/>
<path opacity="0.1" d="M246.43 199.285H239.789V218.194H246.43V199.285Z" fill="#6C63FF"/>
<path opacity="0.1" d="M256.137 199.285H249.496V218.194H256.137V199.285Z" fill="#6C63FF"/>
<path opacity="0.1" d="M265.848 199.285H259.207V218.194H265.848V199.285Z" fill="#6C63FF"/>
<path opacity="0.1" d="M217.309 202.861H210.668V204.908H217.309V202.861Z" fill="#6C63FF"/>
<path opacity="0.1" d="M227.016 202.861H220.375V204.908H227.016V202.861Z" fill="#6C63FF"/>
<path opacity="0.1" d="M236.723 202.861H230.082V204.908H236.723V202.861Z" fill="#6C63FF"/>
<path opacity="0.1" d="M246.43 202.861H239.789V204.908H246.43V202.861Z" fill="#6C63FF"/>
<path opacity="0.1" d="M256.137 202.861H249.496V204.908H256.137V202.861Z" fill="#6C63FF"/>
<path opacity="0.1" d="M265.848 202.861H259.207V204.908H265.848V202.861Z" fill="#6C63FF"/>
<path opacity="0.1" d="M217.309 212.061H210.668V214.108H217.309V212.061Z" fill="#6C63FF"/>
<path opacity="0.1" d="M227.016 212.061H220.375V214.108H227.016V212.061Z" fill="#6C63FF"/>
<path opacity="0.1" d="M236.723 212.061H230.082V214.108H236.723V212.061Z" fill="#6C63FF"/>
<path opacity="0.1" d="M246.43 212.061H239.789V214.108H246.43V212.061Z" fill="#6C63FF"/>
<path opacity="0.1" d="M256.137 212.061H249.496V214.108H256.137V212.061Z" fill="#6C63FF"/>
<path opacity="0.1" d="M265.848 212.061H259.207V214.108H265.848V212.061Z" fill="#6C63FF"/>
<path opacity="0.1" d="M424.748 227.394H355.77V230.971H424.748V227.394Z" fill="#6C63FF"/>
<path opacity="0.1" d="M368.543 208.484H361.902V227.394H368.543V208.484Z" fill="#6C63FF"/>
<path opacity="0.1" d="M378.246 208.484H371.605V227.394H378.246V208.484Z" fill="#6C63FF"/>
<path opacity="0.1" d="M387.953 208.484H381.312V227.394H387.953V208.484Z" fill="#6C63FF"/>
<path opacity="0.1" d="M397.668 208.484H391.027V227.394H397.668V208.484Z" fill="#6C63FF"/>
<path opacity="0.1" d="M407.375 208.484H400.734V227.394H407.375V208.484Z" fill="#6C63FF"/>
<path opacity="0.1" d="M417.078 208.484H410.438V227.394H417.078V208.484Z" fill="#6C63FF"/>
<path opacity="0.1" d="M368.543 212.061H361.902V214.108H368.543V212.061Z" fill="#6C63FF"/>
<path opacity="0.1" d="M378.246 212.061H371.605V214.108H378.246V212.061Z" fill="#6C63FF"/>
<path opacity="0.1" d="M387.953 212.061H381.312V214.108H387.953V212.061Z" fill="#6C63FF"/>
<path opacity="0.1" d="M397.668 212.061H391.027V214.108H397.668V212.061Z" fill="#6C63FF"/>
<path opacity="0.1" d="M407.375 212.061H400.734V214.108H407.375V212.061Z" fill="#6C63FF"/>
<path opacity="0.1" d="M417.078 212.061H410.438V214.108H417.078V212.061Z" fill="#6C63FF"/>
<path opacity="0.1" d="M368.543 221.261H361.902V223.307H368.543V221.261Z" fill="#6C63FF"/>
<path opacity="0.1" d="M378.246 221.261H371.605V223.307H378.246V221.261Z" fill="#6C63FF"/>
<path opacity="0.1" d="M387.953 221.261H381.312V223.307H387.953V221.261Z" fill="#6C63FF"/>
<path opacity="0.1" d="M397.668 221.261H391.027V223.307H397.668V221.261Z" fill="#6C63FF"/>
<path opacity="0.1" d="M407.375 221.261H400.734V223.307H407.375V221.261Z" fill="#6C63FF"/>
<path opacity="0.1" d="M417.078 221.261H410.438V223.307H417.078V221.261Z" fill="#6C63FF"/>
<path opacity="0.1" d="M424.748 253.457H355.77V257.033H424.748V253.457Z" fill="#6C63FF"/>
<path opacity="0.1" d="M368.543 234.547H361.902V253.457H368.543V234.547Z" fill="#6C63FF"/>
<path opacity="0.1" d="M378.246 234.547H371.605V253.457H378.246V234.547Z" fill="#6C63FF"/>
<path opacity="0.1" d="M387.953 234.547H381.312V253.457H387.953V234.547Z" fill="#6C63FF"/>
<path opacity="0.1" d="M397.668 234.547H391.027V253.457H397.668V234.547Z" fill="#6C63FF"/>
<path opacity="0.1" d="M407.375 234.547H400.734V253.457H407.375V234.547Z" fill="#6C63FF"/>
<path opacity="0.1" d="M417.078 234.547H410.438V253.457H417.078V234.547Z" fill="#6C63FF"/>
<path opacity="0.1" d="M368.543 238.124H361.902V240.17H368.543V238.124Z" fill="#6C63FF"/>
<path opacity="0.1" d="M378.246 238.124H371.605V240.17H378.246V238.124Z" fill="#6C63FF"/>
<path opacity="0.1" d="M387.953 238.124H381.312V240.17H387.953V238.124Z" fill="#6C63FF"/>
<path opacity="0.1" d="M397.668 238.124H391.027V240.17H397.668V238.124Z" fill="#6C63FF"/>
<path opacity="0.1" d="M407.375 238.124H400.734V240.17H407.375V238.124Z" fill="#6C63FF"/>
<path opacity="0.1" d="M417.078 238.124H410.438V240.17H417.078V238.124Z" fill="#6C63FF"/>
<path opacity="0.1" d="M368.543 247.324H361.902V249.37H368.543V247.324Z" fill="#6C63FF"/>
<path opacity="0.1" d="M378.246 247.324H371.605V249.37H378.246V247.324Z" fill="#6C63FF"/>
<path opacity="0.1" d="M387.953 247.324H381.312V249.37H387.953V247.324Z" fill="#6C63FF"/>
<path opacity="0.1" d="M397.668 247.324H391.027V249.37H397.668V247.324Z" fill="#6C63FF"/>
<path opacity="0.1" d="M407.375 247.324H400.734V249.37H407.375V247.324Z" fill="#6C63FF"/>
<path opacity="0.1" d="M417.078 247.324H410.438V249.37H417.078V247.324Z" fill="#6C63FF"/>
<path opacity="0.1" d="M246.852 258.637C246.337 257.978 245.867 257.285 245.443 256.564L255.377 254.933L244.645 255.014C243.615 252.771 243.053 250.343 242.993 247.876C242.933 245.41 243.377 242.957 244.296 240.667L258.684 248.129L245.396 238.359C246.632 236.189 248.304 234.298 250.305 232.805C252.306 231.313 254.595 230.25 257.026 229.684C259.458 229.118 261.98 229.061 264.435 229.516C266.89 229.972 269.224 230.93 271.291 232.331C273.357 233.732 275.112 235.545 276.445 237.657C277.778 239.769 278.66 242.133 279.036 244.602C279.412 247.071 279.274 249.591 278.63 252.004C277.985 254.417 276.85 256.671 275.293 258.624C276.102 259.644 276.795 260.752 277.359 261.925L264.467 268.636L278.211 264.026C279.173 266.876 279.41 269.922 278.9 272.887C278.391 275.852 277.151 278.643 275.293 281.009C277.399 283.681 278.711 286.891 279.078 290.273C279.445 293.655 278.853 297.073 277.369 300.134C275.885 303.195 273.57 305.776 270.688 307.583C267.806 309.389 264.473 310.347 261.072 310.347C257.672 310.347 254.339 309.389 251.457 307.583C248.575 305.776 246.26 303.195 244.776 300.134C243.292 297.073 242.7 293.655 243.067 290.273C243.434 286.891 244.746 283.681 246.852 281.009C244.343 277.817 242.979 273.874 242.979 269.813C242.979 265.753 244.343 261.81 246.852 258.617V258.637Z" fill="#6C63FF"/>
<path opacity="0.1" d="M279.171 269.83C279.171 273.886 277.805 277.824 275.293 281.009C277.399 283.68 278.711 286.891 279.078 290.273C279.445 293.655 278.853 297.072 277.369 300.134C275.885 303.195 273.57 305.776 270.688 307.582C267.806 309.388 264.473 310.346 261.072 310.346C257.672 310.346 254.339 309.388 251.457 307.582C248.575 305.776 246.26 303.195 244.776 300.134C243.292 297.072 242.7 293.655 243.067 290.273C243.434 286.891 244.746 283.68 246.852 281.009C244.417 277.942 279.171 267.796 279.171 269.83Z" fill="#6C63FF"/>
<path opacity="0.2" d="M263.973 315.151C264.004 315.199 264.033 315.248 264.06 315.299H257.916C257.949 315.252 257.969 315.198 258.003 315.151C257.474 314.231 257.201 313.186 257.211 312.125C257.208 311.397 257.333 310.675 257.58 309.991C257.922 310.044 258.345 310.105 258.835 310.158C260.26 310.301 261.696 310.301 263.121 310.158C263.532 310.118 263.955 310.065 264.389 309.997C264.386 310.008 264.386 310.02 264.389 310.031C264.633 310.704 264.756 311.415 264.751 312.131C264.764 313.189 264.496 314.231 263.973 315.151Z" fill="#3F3D56"/>
<path opacity="0.1" d="M241.887 315.299H207.677C207.603 315.104 207.536 314.896 207.475 314.695C206.27 310.817 206.41 306.646 207.871 302.858C204.531 300.548 202.064 297.183 200.866 293.302C199.668 289.421 199.808 285.25 201.264 281.459C200.576 280.985 199.924 280.463 199.312 279.895L208.314 275.406L198.078 278.654C196.432 276.817 195.178 274.663 194.394 272.324C193.609 269.985 193.311 267.511 193.516 265.052L209.488 267.938L193.912 262.523C194.449 260.081 195.486 257.777 196.957 255.755C198.428 253.734 200.301 252.039 202.458 250.777C204.616 249.515 207.011 248.714 209.494 248.423C211.976 248.132 214.492 248.358 216.882 249.088C219.273 249.817 221.487 251.033 223.385 252.66C225.283 254.287 226.823 256.289 227.91 258.54C228.997 260.792 229.606 263.244 229.699 265.742C229.792 268.241 229.367 270.731 228.451 273.058C229.532 273.81 230.528 274.676 231.423 275.641L221.079 285.847L232.852 277.379C234.616 279.821 235.743 282.665 236.132 285.652C236.521 288.64 236.159 291.678 235.079 294.49C238.327 296.741 240.751 299.992 241.981 303.749C243.21 307.506 243.177 311.562 241.887 315.299Z" fill="#6C63FF"/>
<path opacity="0.1" d="M241.888 315.299H207.678C207.604 315.104 207.537 314.896 207.476 314.695C206.271 310.817 206.411 306.646 207.872 302.858C204.652 300.63 234.858 280.667 235.455 282.613C236.66 286.493 236.521 290.666 235.059 294.456C238.319 296.706 240.751 299.962 241.985 303.726C243.218 307.491 243.184 311.555 241.888 315.299Z" fill="#6C63FF"/>
<path opacity="0.1" d="M396.676 290.78C394.599 294.268 391.406 296.953 387.614 298.402C387.776 299.693 387.801 300.998 387.688 302.294L373.192 301.422L387.352 304.495C386.936 306.426 386.206 308.276 385.192 309.971C383.958 312.047 382.315 313.851 380.363 315.272H360.628V315.789H340.504C340.544 315.614 340.584 315.447 340.631 315.272C341.366 312.496 342.749 309.934 344.668 307.798C346.586 305.662 348.985 304.012 351.666 302.986C351.151 298.957 352.004 294.873 354.088 291.388C356.172 287.903 359.365 285.219 363.157 283.767C363.051 282.937 363.001 282.101 363.009 281.264L372.367 284.962L363.11 279.52C363.383 277.067 364.154 274.696 365.375 272.552C366.597 270.408 368.243 268.537 370.214 267.052L378.739 280.862L372.347 265.656C375.829 263.729 379.849 263.002 383.785 263.589C387.721 264.176 391.355 266.043 394.124 268.903C396.893 271.762 398.644 275.454 399.105 279.409C399.566 283.363 398.713 287.359 396.676 290.78Z" fill="#6C63FF"/>
<path opacity="0.1" d="M385.192 309.998C383.958 312.074 382.315 313.877 380.363 315.299H360.628V315.815H340.504C340.544 315.641 340.584 315.473 340.631 315.299C341.366 312.522 342.749 309.961 344.668 307.824C346.586 305.688 348.985 304.039 351.666 303.012C351.498 301.67 355.396 301.871 360.594 302.744C370.784 304.455 385.883 308.843 385.192 309.998Z" fill="#6C63FF"/>
<path d="M299.65 261.677C299.65 261.677 302.132 275.097 296.591 279.479C291.05 283.861 301.287 310.125 318.177 307.058C335.068 303.992 341.95 281.962 341.95 281.962C341.95 281.962 325.033 278.459 331.305 260.657L299.65 261.677Z" fill="#EE8E9E"/>
<path opacity="0.1" d="M299.65 261.677C299.65 261.677 302.132 275.097 296.591 279.479C291.05 283.861 301.287 310.125 318.177 307.058C335.068 303.992 341.95 281.962 341.95 281.962C341.95 281.962 325.033 278.459 331.305 260.657L299.65 261.677Z" fill="black"/>
<path d="M314.603 271.527C330.071 271.527 342.609 258.985 342.609 243.512C342.609 228.04 330.071 215.497 314.603 215.497C299.136 215.497 286.598 228.04 286.598 243.512C286.598 258.985 299.136 271.527 314.603 271.527Z" fill="#EE8E9E"/>
<path d="M360.624 296.772V315.816H268.148V297.637C268.148 295.332 268.827 293.078 270.1 291.157C271.373 289.236 273.184 287.732 275.306 286.834L277.955 285.707C284.663 282.848 292.814 279.298 295.477 277.822C295.768 277.676 296.043 277.498 296.295 277.292C297.751 275.836 297.462 277.728 297.462 277.728C297.462 277.728 297.422 278.09 297.395 278.714C297.234 283.002 297.851 299.852 317.593 298.449C336.851 297.107 337.717 284.076 337.522 280.244C337.511 279.89 337.482 279.536 337.435 279.184C338.767 279.501 340.07 279.928 341.332 280.459C345.357 281.949 351.3 284.338 352.89 285.465C353.387 285.814 353.99 286.176 354.648 286.545C355.393 286.961 356.091 287.459 356.727 288.028C357.954 289.13 358.935 290.479 359.606 291.985C360.278 293.491 360.625 295.122 360.624 296.772Z" fill="#6C63FF"/>
<path opacity="0.1" d="M341.335 280.459C339.705 288.015 334.587 302.167 316.14 302.536C296.486 302.925 295.345 283.371 295.473 277.822C295.769 277.68 296.046 277.502 296.298 277.292C297.76 275.836 297.465 277.728 297.465 277.728C297.465 277.728 294.99 300.053 317.589 298.449C340.188 296.846 337.411 279.191 337.411 279.191C337.411 279.084 339.095 279.667 341.335 280.459Z" fill="black"/>
<path d="M281.453 244.914C282.383 244.682 283.362 244.733 284.262 245.062C285.162 245.391 285.943 245.983 286.505 246.76C287.524 248.189 287.678 249.914 287.806 251.564C289.02 251.819 289.704 250.444 289.818 249.404C290.268 245.169 290.301 240.855 291.723 236.761C293.145 232.668 296.251 228.709 301.021 227.146C302.65 226.581 304.392 226.415 306.099 226.663C307.111 226.83 308.064 227.186 309.07 227.334C312.558 227.911 316.348 226.26 319.615 227.407C321.668 228.132 322.969 229.803 323.928 231.474C324.346 232.375 324.913 233.198 325.605 233.91C326.994 235.158 329.167 235.48 331.159 235.869C333.152 236.258 335.325 236.936 336.177 238.473C336.942 239.862 336.378 241.465 336.123 242.968C335.729 245.35 336.127 247.794 337.257 249.927C337.626 250.598 338.377 251.41 339.269 251.189C339.669 251.053 340.007 250.78 340.222 250.417C342.509 247.209 342.449 243.036 345.32 240.143C346.279 239.177 347.52 238.426 348.453 237.459C349.158 236.743 349.676 235.864 349.959 234.899C350.242 233.934 350.282 232.914 350.076 231.93C349.559 229.716 347.789 227.904 346.36 225.958C344.504 223.493 343.152 220.686 342.382 217.698C342.247 217.35 342.247 216.965 342.382 216.617C342.653 216.265 343.002 215.98 343.402 215.785C344.179 215.264 344.74 214.477 344.98 213.571C345.219 212.666 345.121 211.704 344.703 210.867C343.891 209.209 342.107 207.948 340.094 207.196C338.053 206.525 335.946 206.075 333.809 205.854C332.4 206.055 330.75 205.257 330.314 204.129C330.12 203.626 330.12 203.083 329.925 202.579C329.661 202.074 329.28 201.639 328.813 201.312C328.346 200.985 327.807 200.776 327.242 200.7C326.042 200.506 324.814 200.594 323.653 200.955C322.312 201.331 320.789 201.895 319.628 201.237C319.018 200.895 318.683 200.271 318.025 199.989C316.684 199.425 315.302 200.566 314.343 201.506C313.418 202.491 312.283 203.255 311.022 203.74C310.356 203.994 309.644 204.101 308.933 204.053C308.222 204.006 307.53 203.805 306.903 203.465C305.984 202.881 305.522 201.942 304.79 201.197C303.409 199.965 301.642 199.253 299.793 199.184C297.892 199.083 295.986 199.291 294.152 199.801C290.65 200.655 287.306 202.059 284.244 203.962C282.704 204.808 281.397 206.023 280.441 207.498C279.874 208.629 279.583 209.877 279.589 211.142C279.441 215.107 280.756 219.281 284.184 222.059C282.091 222.932 281.386 225.072 280.897 226.971C280.112 230.004 279.327 233.084 279.622 236.171C279.77 237.768 280.206 239.365 279.971 240.955C279.783 241.704 279.679 242.472 279.662 243.244C279.761 243.669 279.984 244.055 280.303 244.352C280.622 244.65 281.023 244.846 281.453 244.914Z" fill="#454B69"/>
<g opacity="0.1">
<path opacity="0.1" d="M349.642 230.682C349.341 231.34 348.933 231.943 348.434 232.467C347.502 233.447 346.261 234.205 345.302 235.151C342.431 238.023 342.491 242.224 340.204 245.431C339.99 245.794 339.651 246.066 339.251 246.196C338.379 246.424 337.628 245.633 337.239 244.935C336.795 244.085 336.46 243.183 336.239 242.251C336.192 242.486 336.145 242.72 336.105 242.922C335.711 245.303 336.109 247.748 337.239 249.88C337.608 250.551 338.359 251.363 339.251 251.142C339.651 251.007 339.989 250.733 340.204 250.37C342.491 247.163 342.431 242.989 345.302 240.097C346.261 239.13 347.502 238.379 348.434 237.413C349.14 236.696 349.658 235.817 349.941 234.852C350.224 233.887 350.264 232.867 350.058 231.883C349.955 231.471 349.815 231.069 349.642 230.682Z" fill="black"/>
<path opacity="0.1" d="M343.39 210.819C342.989 211.012 342.639 211.297 342.37 211.651C342.236 211.997 342.236 212.38 342.37 212.725C342.635 213.768 342.973 214.79 343.383 215.785C344.161 215.263 344.722 214.476 344.961 213.571C345.201 212.666 345.102 211.704 344.684 210.866C344.554 210.59 344.396 210.327 344.215 210.081C343.977 210.365 343.699 210.614 343.39 210.819Z" fill="black"/>
<path opacity="0.1" d="M284.224 217.04C281.847 215.081 280.281 212.31 279.83 209.263C279.71 209.864 279.642 210.475 279.629 211.088C279.475 214.018 280.247 216.922 281.836 219.389C282.316 218.339 283.166 217.503 284.224 217.04Z" fill="black"/>
<path opacity="0.1" d="M336.124 238.023C336.379 236.513 336.943 234.909 336.178 233.527C335.326 231.984 333.153 231.313 331.16 230.923C329.168 230.534 326.995 230.205 325.606 228.964C324.914 228.253 324.346 227.429 323.929 226.528C322.983 224.857 321.669 223.173 319.616 222.462C316.349 221.314 312.559 222.958 309.071 222.388C308.065 222.22 307.112 221.871 306.099 221.717C304.393 221.467 302.651 221.633 301.022 222.2C296.252 223.77 293.146 227.729 291.724 231.816C290.302 235.902 290.269 240.217 289.819 244.458C289.705 245.491 289.021 246.874 287.807 246.619C287.679 244.961 287.525 243.264 286.505 241.807C285.943 241.031 285.162 240.441 284.262 240.114C283.361 239.786 282.384 239.736 281.454 239.969C280.891 239.843 280.39 239.522 280.039 239.063C280.113 239.678 280.113 240.3 280.039 240.915C279.851 241.664 279.747 242.431 279.73 243.203C279.817 243.633 280.03 244.026 280.342 244.334C280.654 244.641 281.051 244.848 281.481 244.928C282.411 244.695 283.389 244.747 284.29 245.076C285.19 245.405 285.971 245.996 286.532 246.773C287.552 248.202 287.706 249.927 287.834 251.578C289.048 251.833 289.732 250.457 289.846 249.417C290.295 245.183 290.329 240.868 291.751 236.775C293.173 232.681 296.279 228.722 301.048 227.159C302.678 226.594 304.419 226.428 306.126 226.676C307.139 226.843 308.092 227.199 309.098 227.347C312.586 227.924 316.376 226.273 319.643 227.421C321.695 228.145 322.997 229.816 323.956 231.487C324.373 232.388 324.94 233.212 325.633 233.923C327.022 235.171 329.195 235.493 331.187 235.882C333.179 236.271 335.212 236.902 336.104 238.325C336.071 238.224 336.104 238.123 336.124 238.023Z" fill="black"/>
<path opacity="0.1" d="M280.011 235.936C280.122 234.686 280.047 233.426 279.79 232.198C279.593 233.495 279.55 234.81 279.662 236.117C279.662 236.453 279.736 236.788 279.783 237.117C279.857 236.721 279.957 236.332 280.011 235.936Z" fill="black"/>
</g>
<path d="M247.18 342.891V330.779C247.18 330.689 247.216 330.602 247.28 330.537C247.344 330.473 247.431 330.437 247.522 330.437H248.897C248.988 330.437 249.075 330.473 249.139 330.537C249.203 330.602 249.239 330.689 249.239 330.779V335.819L254.82 330.645C254.951 330.536 255.111 330.465 255.28 330.442C255.449 330.419 255.622 330.444 255.777 330.513C255.933 330.583 256.066 330.696 256.162 330.838C256.257 330.98 256.31 331.145 256.316 331.316V342.288C256.31 342.458 256.257 342.624 256.162 342.766C256.066 342.908 255.933 343.02 255.777 343.09C255.622 343.16 255.449 343.185 255.28 343.162C255.111 343.138 254.951 343.068 254.82 342.959L249.239 337.818V342.831C249.239 342.922 249.203 343.009 249.139 343.073C249.075 343.137 248.988 343.173 248.897 343.173H247.522C247.441 343.175 247.362 343.147 247.299 343.095C247.236 343.044 247.194 342.971 247.18 342.891Z" fill="#444053"/>
<path d="M382.03 330.779V342.891C382.03 342.937 382.021 342.982 382.003 343.024C381.986 343.066 381.96 343.104 381.928 343.136C381.895 343.168 381.857 343.193 381.814 343.21C381.772 343.226 381.727 343.235 381.681 343.234H380.34C380.249 343.234 380.162 343.198 380.098 343.133C380.034 343.069 379.998 342.982 379.998 342.891V337.852L374.417 343.019C374.285 343.128 374.125 343.198 373.956 343.22C373.786 343.243 373.614 343.219 373.458 343.149C373.301 343.079 373.168 342.967 373.072 342.826C372.976 342.684 372.921 342.519 372.914 342.348V331.336C372.921 331.166 372.976 331 373.072 330.859C373.168 330.717 373.301 330.605 373.458 330.535C373.614 330.466 373.786 330.441 373.956 330.464C374.125 330.487 374.285 330.557 374.417 330.665L379.998 335.805V330.8C379.998 330.709 380.034 330.622 380.098 330.558C380.162 330.493 380.249 330.457 380.34 330.457H381.681C381.77 330.455 381.856 330.488 381.921 330.548C381.986 330.608 382.025 330.691 382.03 330.779Z" fill="#444053"/>
<path d="M312.33 343.415H309.599C309.244 343.415 308.902 343.273 308.651 343.022C308.399 342.77 308.258 342.429 308.258 342.073V332.048C308.258 331.692 308.399 331.35 308.651 331.099C308.902 330.847 309.244 330.706 309.599 330.706H312.33C312.685 330.706 313.027 330.847 313.278 331.099C313.53 331.35 313.671 331.692 313.671 332.048V342.073C313.671 342.429 313.53 342.77 313.278 343.022C313.027 343.273 312.685 343.415 312.33 343.415ZM320.983 342.073V332.048C320.983 331.692 320.841 331.35 320.59 331.099C320.338 330.847 319.997 330.706 319.641 330.706H316.884C316.528 330.706 316.187 330.847 315.936 331.099C315.684 331.35 315.543 331.692 315.543 332.048V342.073C315.543 342.429 315.684 342.77 315.936 343.022C316.187 343.273 316.528 343.415 316.884 343.415H319.614C319.793 343.418 319.97 343.386 320.136 343.32C320.302 343.255 320.453 343.156 320.58 343.031C320.708 342.906 320.809 342.757 320.878 342.593C320.947 342.428 320.983 342.251 320.983 342.073Z" fill="#444053"/>
<path opacity="0.6" d="M395.1 314.453H234.109V316.245H395.1V314.453Z" fill="#444053"/>
<path d="M283.82 319.593C286.165 319.593 288.067 317.692 288.067 315.346C288.067 313 286.165 311.098 283.82 311.098C281.475 311.098 279.574 313 279.574 315.346C279.574 317.692 281.475 319.593 283.82 319.593Z" fill="#444053"/>
<path d="M283.822 314.453H234.109V316.245H283.822V314.453Z" fill="#444053"/>
<path d="M642.006 516.674C664.037 516.674 681.898 513.237 681.898 508.998C681.898 504.758 664.037 501.321 642.006 501.321C619.974 501.321 602.113 504.758 602.113 508.998C602.113 513.237 619.974 516.674 642.006 516.674Z" fill="#6C63FF"/>
<path d="M641.341 511.816C643.905 511.816 645.983 509.094 645.983 505.737C645.983 502.379 643.905 499.657 641.341 499.657C638.777 499.657 636.699 502.379 636.699 505.737C636.699 509.094 638.777 511.816 641.341 511.816Z" fill="#3F3D56"/>
<path d="M641.341 504.381C643.905 504.381 645.983 501.659 645.983 498.301C645.983 494.944 643.905 492.222 641.341 492.222C638.777 492.222 636.699 494.944 636.699 498.301C636.699 501.659 638.777 504.381 641.341 504.381Z" fill="#3F3D56"/>
<path d="M641.341 496.953C643.905 496.953 645.983 494.231 645.983 490.874C645.983 487.516 643.905 484.794 641.341 484.794C638.777 484.794 636.699 487.516 636.699 490.874C636.699 494.231 638.777 496.953 641.341 496.953Z" fill="#3F3D56"/>
<path d="M641.341 489.517C643.905 489.517 645.983 486.796 645.983 483.438C645.983 480.08 643.905 477.358 641.341 477.358C638.777 477.358 636.699 480.08 636.699 483.438C636.699 486.796 638.777 489.517 641.341 489.517Z" fill="#3F3D56"/>
<path d="M641.341 482.083C643.905 482.083 645.983 479.361 645.983 476.003C645.983 472.646 643.905 469.924 641.341 469.924C638.777 469.924 636.699 472.646 636.699 476.003C636.699 479.361 638.777 482.083 641.341 482.083Z" fill="#3F3D56"/>
<path d="M641.341 474.647C643.905 474.647 645.983 471.925 645.983 468.568C645.983 465.21 643.905 462.488 641.341 462.488C638.777 462.488 636.699 465.21 636.699 468.568C636.699 471.925 638.777 474.647 641.341 474.647Z" fill="#3F3D56"/>
<path d="M641.341 467.213C643.905 467.213 645.983 464.491 645.983 461.133C645.983 457.776 643.905 455.054 641.341 455.054C638.777 455.054 636.699 457.776 636.699 461.133C636.699 464.491 638.777 467.213 641.341 467.213Z" fill="#3F3D56"/>
<path d="M658.722 410.27C659.355 409.459 659.933 408.607 660.452 407.72L648.244 405.707L661.445 405.807C662.709 403.051 663.399 400.065 663.471 397.033C663.544 394.002 662.998 390.987 661.868 388.173L644.172 397.366L660.499 385.361C658.97 382.715 656.912 380.413 654.454 378.598C651.996 376.783 649.19 375.493 646.212 374.81C643.234 374.127 640.148 374.065 637.144 374.627C634.141 375.189 631.286 376.364 628.757 378.079C626.228 379.793 624.079 382.011 622.443 384.592C620.808 387.174 619.722 390.065 619.253 393.085C618.783 396.105 618.94 399.189 619.715 402.146C620.489 405.102 621.864 407.868 623.753 410.27C622.769 411.519 621.919 412.869 621.217 414.296L637.062 422.529L620.171 416.859C618.985 420.366 618.692 424.112 619.317 427.761C619.942 431.409 621.467 434.844 623.753 437.755C621.174 441.037 619.57 444.98 619.124 449.131C618.679 453.282 619.41 457.475 621.234 461.231C623.058 464.986 625.901 468.152 629.439 470.367C632.977 472.582 637.067 473.757 641.241 473.757C645.414 473.757 649.504 472.582 653.042 470.367C656.58 468.152 659.423 464.986 661.247 461.231C663.072 457.475 663.803 453.282 663.357 449.131C662.912 444.98 661.308 441.037 658.728 437.755C661.81 433.832 663.485 428.988 663.485 423.999C663.485 419.01 661.81 414.166 658.728 410.243L658.722 410.27Z" fill="#6C63FF"/>
<path opacity="0.1" d="M618.996 424.026C618.987 429.016 620.662 433.864 623.752 437.782C621.173 441.064 619.569 445.006 619.123 449.158C618.678 453.309 619.409 457.502 621.233 461.258C623.057 465.013 625.901 468.179 629.438 470.394C632.976 472.609 637.066 473.784 641.24 473.784C645.413 473.784 649.503 472.609 653.041 470.394C656.579 468.179 659.422 465.013 661.247 461.258C663.071 457.502 663.802 453.309 663.356 449.158C662.911 445.006 661.307 441.064 658.727 437.782C661.706 434.004 618.996 421.529 618.996 424.026Z" fill="black"/>
<path opacity="0.1" d="M194.53 557.996C231.207 557.996 260.939 551.687 260.939 543.904C260.939 536.122 231.207 529.812 194.53 529.812C157.853 529.812 128.121 536.122 128.121 543.904C128.121 551.687 157.853 557.996 194.53 557.996Z" fill="#6C63FF"/>
<path d="M216.765 542.267C215.424 541.777 213.988 541.858 212.586 541.703C209.675 541.367 206.965 540.051 204.899 537.973C203.57 536.629 202.526 535.031 201.827 533.275C202.269 533.436 202.712 533.604 203.168 533.785C201.827 530.652 203.235 527.135 204.47 523.968C206.563 518.6 208.541 513.203 210.406 507.776C215.102 494.027 219.127 479.727 219.039 465.099C219.039 459.811 218.067 454.812 217.879 449.531C217.738 445.612 218.342 441.7 218.315 437.775C218.315 437.224 218.315 436.681 218.275 436.131C219.475 435.08 220.417 433.767 221.03 432.294C221.643 430.822 221.91 429.228 221.81 427.635C221.742 426.806 221.623 425.981 221.454 425.166C221.217 423.75 220.903 422.348 220.515 420.965C220.072 419.509 219.469 418.114 218.952 416.691C217.953 413.933 217.275 411.061 216.423 408.256C216.739 408.288 217.047 408.372 217.336 408.504C217.121 408.252 216.973 407.95 216.906 407.625C216.405 405.84 216.135 403.997 216.101 402.143L216.671 401.888C216.928 400.078 216.835 398.235 216.396 396.459C216.718 393.581 217.222 390.682 217.53 387.817C217.644 386.743 217.597 385.394 216.611 385.132C216.41 383.596 216.329 382.039 216.249 380.489C215.967 375.08 215.688 369.674 215.41 364.27C215.129 358.842 214.847 353.42 214.74 347.984C214.666 344.535 214.626 340.965 213.807 337.664C213.949 336.082 213.787 334.488 213.331 332.967C212.083 329.014 208.206 325.881 204.275 326.102C203.103 324.424 201.653 322.958 199.989 321.767C200.774 320.009 201.713 318.197 202.484 316.775C208.776 314.728 213.378 308.521 213.378 301.14C213.387 298.438 212.755 295.772 211.533 293.363C211.649 293.067 211.747 292.764 211.828 292.457C212.165 291.008 212.06 289.491 211.526 288.102C211.338 287.569 211.114 287.049 210.856 286.545C210.681 286.21 210.493 285.874 210.299 285.552L209.957 285.035C209.749 284.72 209.534 284.418 209.286 284.123C208.81 283.483 208.299 282.869 207.757 282.284C207.089 281.561 206.352 280.905 205.556 280.325C204.478 279.523 203.244 278.954 201.934 278.654C201.177 278.504 200.405 278.434 199.633 278.446C199.17 278.446 198.701 278.446 198.238 278.486C197.299 278.54 196.366 278.607 195.434 278.6C195.125 278.6 194.81 278.6 194.502 278.553C192.86 278.334 191.237 277.996 189.645 277.54L188.84 277.372C188.565 277.318 188.297 277.271 188.022 277.238C187.286 277.14 186.544 277.095 185.801 277.104H185.057C184.313 277.139 183.572 277.216 182.837 277.332L182.099 277.446C180.235 277.738 178.419 278.277 176.699 279.05C176.477 279.15 176.249 279.264 176.028 279.385L175.894 279.459C175.713 279.553 175.532 279.654 175.357 279.761L175.256 279.821L174.686 280.184L174.639 280.217C169.313 283.801 166.167 290.591 165.369 297.328C164.477 304.891 166.04 312.514 167.603 319.956L169.011 326.666C169.072 326.968 169.139 327.263 169.199 327.565C167.218 329.191 165.695 331.305 164.779 333.698C163.437 337.053 163.404 340.684 163.511 344.321C163.511 345.059 163.551 345.797 163.625 346.535C163.457 347.931 163.31 349.333 163.216 350.742C162.793 357.251 163.585 363.794 163.377 370.316C163.216 375.342 162.458 380.382 162.827 385.374C163.149 389.803 164.336 394.097 165.51 398.372L167.2 404.465C167.255 404.78 167.402 405.072 167.623 405.304C167.9 405.49 168.24 405.56 168.569 405.498C167.469 407.997 166.55 410.571 165.818 413.202C165.313 414.812 164.98 416.473 164.826 418.154C164.604 421.227 165.315 424.28 166.026 427.266C167.1 431.74 168.168 436.231 169.233 440.741C169.984 443.894 170.733 447.046 171.48 450.195C172.956 456.409 174.438 462.663 174.713 469.058C174.866 472.27 174.641 475.488 174.042 478.647C172.107 488.107 171.826 497.831 173.211 507.387C174.33 515.449 176.146 523.399 178.637 531.148C179.181 530.86 179.731 530.591 180.294 530.343L180.059 530.779C179.286 532.121 178.57 533.497 177.913 534.906C177.47 535.822 177.087 536.765 176.766 537.731C175.907 540.415 175.773 543.274 175.652 546.099C175.591 546.642 175.639 547.192 175.793 547.716C176.162 548.729 177.222 549.246 178.208 549.528C181.106 550.353 184.118 550.058 187.13 549.669C187.144 549.735 187.164 549.8 187.19 549.863C187.559 550.876 188.612 551.393 189.605 551.675C193.75 552.856 198.124 551.742 202.397 551.339C206.67 550.937 210.869 551.232 214.981 550.246C215.594 550.115 216.182 549.888 216.725 549.575C217.782 548.835 218.558 547.759 218.925 546.521C219.054 546.201 219.14 545.865 219.18 545.522C219.348 544.052 218.094 542.757 216.765 542.267ZM202.578 480.123C202.347 481.695 201.895 483.227 201.236 484.673C198.01 491.537 195.696 498.794 194.354 506.26C193.474 511.191 192.965 516.182 192.831 521.19C192.764 524.881 192.905 528.746 191.369 532.061L191.926 531.974C191.751 532.296 191.584 532.645 191.423 532.9L191.342 533.047C190.413 531.465 189.792 529.721 189.511 527.907C189.511 527.847 189.209 527.8 188.746 527.773C186.85 517.173 186.193 506.389 186.787 495.637C186.797 494.333 186.977 493.036 187.324 491.779C187.666 490.699 188.243 489.712 188.666 488.665C189.336 486.907 189.786 485.072 190.007 483.203C190.738 478.427 191.021 473.592 190.853 468.763C190.692 464.206 191.745 459.677 192.644 455.141C193.073 452.987 193.469 450.826 193.683 448.665L193.724 448.229C197.715 454.816 200.504 462.059 201.961 469.622C202.771 473.06 202.98 476.613 202.578 480.123ZM173.868 383.146L174.083 383.334C174.731 383.905 175.328 384.531 175.867 385.206C176.135 385.5 176.328 385.855 176.43 386.24C176.632 387.219 175.82 388.051 175.156 388.769C174.867 389.081 174.596 389.408 174.344 389.749C174.201 387.548 174.049 385.347 173.888 383.146H173.868Z" fill="url(#paint0_linear)"/>
<path d="M164.587 341.086L163.849 346.783C163.601 348.716 163.352 350.642 163.218 352.581C162.769 359.036 163.601 365.519 163.386 371.987C163.211 376.966 162.42 381.939 162.802 386.911C163.144 391.299 164.392 395.567 165.64 399.795L167.411 405.834C167.471 406.149 167.626 406.439 167.853 406.666C168.195 406.868 168.6 406.933 168.987 406.847L176.849 406.136C176.346 403.827 175.789 401.439 175.507 399.07C175.293 397.218 175.165 395.352 175.031 393.487C174.615 387.676 174.139 381.865 173.689 376.04L172.851 365.841C172.495 361.412 172.126 356.963 171.013 352.662C169.896 348.317 167.683 344.332 164.587 341.086Z" fill="#6C63FF"/>
<path opacity="0.1" d="M164.587 341.086L163.849 346.783C163.601 348.716 163.352 350.642 163.218 352.581C162.769 359.036 163.601 365.519 163.386 371.987C163.211 376.966 162.42 381.939 162.802 386.911C163.144 391.299 164.392 395.567 165.64 399.795L167.411 405.834C167.471 406.149 167.626 406.439 167.853 406.666C168.195 406.868 168.6 406.933 168.987 406.847L176.849 406.136C176.346 403.827 175.789 401.439 175.507 399.07C175.293 397.218 175.165 395.352 175.031 393.487C174.615 387.676 174.139 381.865 173.689 376.04L172.851 365.841C172.495 361.412 172.126 356.963 171.013 352.662C169.896 348.317 167.683 344.332 164.587 341.086Z" fill="black"/>
<path d="M178.594 535.027C178.133 535.935 177.729 536.872 177.387 537.832C176.488 540.482 176.354 543.327 176.219 546.126C176.16 546.665 176.21 547.21 176.367 547.729C176.756 548.736 177.87 549.246 178.909 549.521C183.263 550.695 187.851 549.595 192.325 549.192C196.799 548.79 201.22 549.085 205.54 548.112C206.178 547.989 206.795 547.774 207.371 547.474C208.465 546.762 209.282 545.696 209.685 544.455C209.816 544.137 209.904 543.803 209.947 543.462C210.088 541.985 208.807 540.71 207.411 540.227C206.016 539.744 204.494 539.818 203.024 539.67C199.999 539.361 197.16 538.061 194.948 535.973C192.736 533.885 191.274 531.126 190.789 528.122C190.735 527.8 183.518 527.994 182.74 528.41C181.854 528.9 181.317 530.115 180.814 530.94C180.023 532.269 179.283 533.631 178.594 535.027Z" fill="#A26565"/>
<path opacity="0.1" d="M178.594 535.027C178.133 535.935 177.729 536.872 177.387 537.832C176.488 540.482 176.354 543.327 176.219 546.126C176.16 546.665 176.21 547.21 176.367 547.729C176.756 548.736 177.87 549.246 178.909 549.521C183.263 550.695 187.851 549.595 192.325 549.192C196.799 548.79 201.22 549.085 205.54 548.112C206.178 547.989 206.795 547.774 207.371 547.474C208.465 546.762 209.282 545.696 209.685 544.455C209.816 544.137 209.904 543.803 209.947 543.462C210.088 541.985 208.807 540.71 207.411 540.227C206.016 539.744 204.494 539.818 203.024 539.67C199.999 539.361 197.16 538.061 194.948 535.973C192.736 533.885 191.274 531.126 190.789 528.122C190.735 527.8 183.518 527.994 182.74 528.41C181.854 528.9 181.317 530.115 180.814 530.94C180.023 532.269 179.283 533.631 178.594 535.027Z" fill="black"/>
<path d="M190.565 537.161C190.1 538.066 189.697 539 189.357 539.959C188.452 542.643 188.318 545.455 188.19 548.253C188.128 548.792 188.178 549.338 188.338 549.857C188.72 550.863 189.834 551.373 190.873 551.655C195.227 552.823 199.822 551.722 204.289 551.32C208.757 550.917 213.191 551.212 217.504 550.239C218.145 550.11 218.762 549.883 219.335 549.568C220.431 548.857 221.248 547.791 221.649 546.548C221.78 546.23 221.868 545.896 221.911 545.555C222.052 544.086 220.771 542.804 219.375 542.321C217.98 541.838 216.458 541.918 214.988 541.764C211.964 541.454 209.127 540.155 206.915 538.068C204.703 535.982 203.24 533.224 202.753 530.222C202.699 529.9 195.482 530.088 194.704 530.504C193.811 530.994 193.275 532.209 192.772 533.034C192.007 534.396 191.256 535.765 190.565 537.161Z" fill="#A26565"/>
<path d="M221.779 465.877C221.873 480.378 217.66 494.55 212.716 508.152C210.758 513.547 208.681 518.895 206.485 524.196C205.183 527.337 203.714 530.826 205.11 533.926C201.085 532.396 196.993 531.497 192.76 532.202C194.37 528.914 194.216 525.089 194.29 521.465C194.426 516.499 194.956 511.552 195.873 506.669C197.294 499.238 199.729 492.037 203.111 485.27C203.794 483.843 204.267 482.324 204.513 480.761C205.063 477.312 204.633 473.769 203.916 470.353C202.372 462.809 199.437 455.618 195.262 449.149L195.222 449.578C194.972 451.736 194.609 453.879 194.135 456C193.19 460.489 192.083 464.985 192.251 469.501C192.425 474.289 192.129 479.083 191.365 483.814C191.119 485.671 190.634 487.489 189.923 489.222C189.46 490.262 188.856 491.235 188.494 492.316C188.131 493.559 187.942 494.846 187.931 496.141C187.394 507.058 187.931 518.144 190.158 528.847C186.421 528.551 182.685 529.632 179.344 531.309C176.732 523.648 174.824 515.764 173.643 507.756C172.187 498.285 172.483 488.628 174.515 479.264C175.148 476.142 175.385 472.951 175.219 469.769C174.931 463.428 173.374 457.228 171.825 451.068L169.464 441.673C168.346 437.2 167.228 432.746 166.11 428.313C165.365 425.354 164.614 422.328 164.848 419.281C165.012 417.61 165.363 415.962 165.895 414.369C167.57 408.951 170.075 403.826 173.321 399.177C186.247 399.902 199.327 398.694 212.227 397.701C212.852 397.577 213.501 397.687 214.051 398.009C214.491 398.456 214.753 399.048 214.789 399.674L219.639 427.186C220.424 431.01 220.884 434.893 221.014 438.795C221.014 442.687 220.411 446.565 220.558 450.45C220.759 455.684 221.752 460.637 221.779 465.877Z" fill="#454B69"/>
<path opacity="0.1" d="M195.236 449.578C194.985 451.736 194.622 453.88 194.149 456C191.338 451.135 188.306 446.391 185.717 441.405C185.046 440.124 184.416 438.822 183.778 437.52L181.867 433.628C181.511 432.897 181.156 432.165 180.834 431.42C180.309 430.35 179.907 429.225 179.633 428.065C180.572 427.891 182.893 430.427 183.591 431.092C185.014 432.501 186.357 433.989 187.615 435.547C189.143 437.28 190.547 439.118 191.814 441.05C193.438 443.674 194.595 446.559 195.236 449.578Z" fill="black"/>
<path d="M206.002 316.104C206.002 316.104 198.825 327.545 200.153 329.94C201.481 332.336 177.547 327.813 177.547 327.813C177.547 327.813 190.58 316.372 189.246 311.581C187.911 306.79 206.002 316.104 206.002 316.104Z" fill="#EFB7B9"/>
<path d="M199.621 319.566C208.583 319.566 215.848 312.299 215.848 303.334C215.848 294.369 208.583 287.102 199.621 287.102C190.659 287.102 183.395 294.369 183.395 303.334C183.395 312.299 190.659 319.566 199.621 319.566Z" fill="#EFB7B9"/>
<path d="M206.243 328.102C204.505 325.69 202.148 323.794 199.421 322.613C197.849 322.05 196.224 321.65 194.571 321.419L188.098 320.278C186.515 319.996 184.817 319.734 183.342 320.385C182.595 320.768 181.916 321.269 181.329 321.868C179.082 323.955 176.902 326.243 174.078 327.451C173.307 327.78 172.502 328.022 171.73 328.35C168.571 329.692 166.209 332.551 164.875 335.732C163.466 339.047 163.426 342.65 163.533 346.253C163.531 347.497 163.655 348.738 163.902 349.957C164.225 351.119 164.635 352.254 165.13 353.353C166.021 355.705 166.77 358.11 167.37 360.553C169.047 366.972 170.442 373.459 171.556 380.013C171.65 380.952 171.926 381.863 172.367 382.697C172.993 383.531 173.749 384.259 174.608 384.851C175.289 385.41 175.915 386.033 176.479 386.71C176.76 386.986 176.97 387.327 177.09 387.703C177.298 388.669 176.419 389.501 175.748 390.206C174.305 391.679 173.261 393.497 172.716 395.487C172.38 395.895 172.208 396.414 172.233 396.943C172.373 397.311 172.426 397.706 172.388 398.097C172.255 398.453 172.047 398.776 171.777 399.043C171.468 399.447 171.248 399.912 171.132 400.407C171.016 400.902 171.008 401.416 171.106 401.915C176.134 404.101 181.515 405.36 186.991 405.633C188.332 405.7 189.674 405.7 191.016 405.861C191.968 405.982 192.907 406.176 193.86 406.29C195.242 406.42 196.632 406.456 198.019 406.398C205.243 406.25 212.676 406.069 219.31 403.204C219.934 399.801 218.585 396.332 217.74 392.977C216.398 387.609 216.063 382.113 215.057 376.698C214.386 373.001 213.38 369.357 212.81 365.633C212.24 361.908 212.139 358.05 213.132 354.427C214.037 351.219 214.312 347.944 215.251 344.744C216.191 341.543 216.848 338.074 215.788 334.906C214.446 330.988 210.375 327.881 206.243 328.102Z" fill="#6C63FF"/>
<path d="M214.211 294.725C215.002 291.846 213.446 288.847 211.595 286.505C209.582 283.989 207.02 281.721 203.874 281.09C201.318 280.573 198.668 281.197 196.066 280.989C193.765 280.808 191.551 279.976 189.264 279.647C187.188 279.423 185.092 279.502 183.039 279.882C181.091 280.172 179.187 280.704 177.371 281.466C170.461 284.532 166.417 292.088 165.477 299.583C164.538 307.079 166.182 314.634 167.819 322.009L169.301 328.679C170.844 335.624 172.387 342.596 172.796 349.696C173.205 356.795 172.44 364.083 169.522 370.565C178.959 365.494 186.271 357.213 190.136 347.22C191.182 344.475 191.96 341.623 193.128 338.926C194.127 336.604 195.408 334.403 196.294 332.034C197.295 329.361 197.775 326.521 197.709 323.667C197.656 321.519 197.3 319.385 197.36 317.238C197.421 315.091 197.971 312.856 199.453 311.299C200.795 309.924 202.64 309.286 204.337 308.394C207.008 307.021 209.343 305.073 211.172 302.69C212.239 301.294 212.299 300.677 212.567 299.093C212.836 297.51 213.795 296.248 214.211 294.725Z" fill="#A26565"/>
<path d="M214.23 416.657C214.398 418.328 214.096 420.013 214.458 421.67C214.733 422.905 215.371 424.019 215.746 425.226C216.118 426.621 216.31 428.058 216.316 429.501C216.37 430.709 216.276 432.185 215.203 432.749C214.733 432.997 214.17 432.997 213.68 433.212C213.191 433.426 212.775 434.01 213.056 434.466C213.338 434.923 213.821 434.849 214.264 434.936C214.707 435.023 215.183 435.48 214.935 435.849C214.834 435.97 214.698 436.056 214.546 436.097C214.098 436.235 213.673 436.439 213.284 436.701C213.095 436.839 212.946 437.027 212.855 437.243C212.764 437.459 212.734 437.697 212.768 437.929C212.795 438.04 212.847 438.144 212.92 438.232C212.992 438.32 213.084 438.391 213.188 438.439C213.292 438.486 213.405 438.51 213.519 438.508C213.634 438.505 213.746 438.477 213.848 438.426C213.651 438.846 213.544 439.303 213.533 439.768C215.25 440.506 217.175 439.539 218.785 438.607C219.481 438.218 220.153 437.788 220.797 437.318C222.1 436.318 223.138 435.014 223.82 433.521C224.503 432.027 224.81 430.389 224.715 428.749C224.638 427.926 224.51 427.108 224.332 426.3C224.085 424.893 223.756 423.502 223.346 422.133C222.884 420.69 222.253 419.315 221.71 417.899C220.556 414.886 219.811 411.732 218.765 408.679C218.695 408.362 218.517 408.08 218.262 407.88C218.031 407.767 217.774 407.718 217.517 407.739C216.343 407.678 215.166 407.786 214.022 408.062C213.352 408.263 212.204 408.733 211.889 409.404C211.574 410.075 212.077 410.638 212.379 411.195C213.343 412.879 213.972 414.734 214.23 416.657Z" fill="#EFB7B9"/>
<path opacity="0.1" d="M213.139 335.121C213.484 335.474 213.773 335.877 213.998 336.316C216.305 340.509 216.332 345.522 216.439 350.306C216.56 355.675 216.855 361.043 217.15 366.445L218.029 382.549C218.116 384.086 218.197 385.623 218.418 387.146C219.451 387.408 219.492 388.75 219.378 389.83C218.633 396.393 216.788 403.15 218.707 409.464C218.781 409.788 218.935 410.088 219.156 410.337C218.182 410.031 217.14 410.017 216.158 410.296C215.198 410.498 214.273 410.853 213.307 411.075C212.086 411.35 210.704 411.471 209.872 412.417C208.93 409.581 208.179 406.684 207.625 403.747C207.169 401.063 207.042 398.298 205.955 395.816C205.519 394.816 204.929 393.89 204.392 392.93C201.581 387.911 200.199 382.241 198.851 376.644C198.246 373.991 198.101 371.254 198.422 368.552C198.617 367.319 198.729 366.075 198.757 364.827C198.676 363.511 198.503 362.201 198.241 360.909C197.671 357.114 197.939 353.241 199.026 349.562C200.032 346.146 200.917 342.549 203.05 339.677C205.183 336.805 209.577 335.168 213.139 335.121Z" fill="black"/>
<path d="M213.938 334.584C214.283 334.939 214.572 335.344 214.797 335.785C217.104 339.972 217.131 344.992 217.239 349.776C217.359 355.144 217.654 360.512 217.95 365.881L218.828 381.985C218.916 383.522 218.996 385.059 219.217 386.582C220.25 386.844 220.291 388.186 220.17 389.266C219.432 395.829 217.587 402.579 219.499 408.9C219.573 409.224 219.728 409.524 219.949 409.773C218.974 409.467 217.932 409.453 216.95 409.732C215.991 409.934 215.065 410.289 214.099 410.504C212.878 410.786 211.497 410.9 210.665 411.846C209.725 408.997 208.981 406.087 208.438 403.136C207.982 400.452 207.854 397.694 206.767 395.211C206.296 394.224 205.774 393.261 205.204 392.326C202.387 387.307 201.012 381.63 199.664 376.033C199.059 373.38 198.913 370.643 199.234 367.941C199.74 365.411 199.678 362.801 199.053 360.298C198.483 356.506 198.751 352.635 199.838 348.957C200.844 345.542 201.73 341.945 203.863 339.073C205.996 336.201 210.376 334.638 213.938 334.584Z" fill="#6C63FF"/>
<g opacity="0.1">
<path opacity="0.1" d="M211.595 286.505C209.583 283.989 207.021 281.721 203.875 281.09C201.319 280.573 198.669 281.197 196.067 280.989C193.766 280.808 191.552 279.976 189.265 279.647C187.189 279.423 185.092 279.502 183.04 279.882C181.092 280.172 179.188 280.704 177.371 281.466C176.39 281.905 175.454 282.438 174.574 283.056C176.191 282.428 177.871 281.978 179.585 281.714C181.635 281.334 183.73 281.255 185.803 281.479C188.097 281.774 190.304 282.6 192.612 282.781C195.208 282.989 197.858 282.371 200.42 282.881C203.566 283.512 206.142 285.787 208.134 288.303C209.992 290.639 211.542 293.638 210.757 296.523C210.341 298.04 209.375 299.369 209.114 300.932C208.852 302.496 208.785 303.133 207.712 304.529C206.335 306.319 204.672 307.868 202.788 309.112C203.304 308.87 203.834 308.629 204.337 308.367C207.009 306.994 209.344 305.046 211.173 302.663C212.239 301.268 212.3 300.65 212.568 299.067C212.836 297.483 213.796 296.181 214.212 294.658C215.003 291.846 213.447 288.847 211.595 286.505Z" fill="black"/>
<path opacity="0.1" d="M199.454 311.34C199.732 311.052 200.035 310.789 200.36 310.555C198.81 311.306 197.18 311.964 195.993 313.239C194.511 314.789 193.981 317.03 193.9 319.177C193.82 321.325 194.202 323.459 194.249 325.599C194.315 328.455 193.835 331.298 192.834 333.974C191.948 336.342 190.667 338.537 189.667 340.865C188.507 343.549 187.729 346.408 186.682 349.152C183.329 357.817 177.374 365.229 169.637 370.37C169.597 370.457 169.564 370.551 169.523 370.639C178.96 365.568 186.272 357.287 190.137 347.293C191.183 344.549 191.962 341.697 193.129 339C194.128 336.678 195.409 334.477 196.295 332.108C197.296 329.435 197.776 326.594 197.71 323.74C197.657 321.593 197.301 319.459 197.361 317.312C197.422 315.165 197.972 312.897 199.454 311.34Z" fill="black"/>
</g>
<defs>
<linearGradient id="paint0_linear" x1="192.301" y1="552.178" x2="192.301" y2="277.124" gradientUnits="userSpaceOnUse">
<stop stop-color="#808080" stop-opacity="0.25"/>
<stop offset="0.54" stop-color="#808080" stop-opacity="0.12"/>
<stop offset="1" stop-color="#808080" stop-opacity="0.1"/>
</linearGradient>
</defs>
</svg>
