<svg width="184" height="179" viewBox="0 0 184 179" fill="none" xmlns="http://www.w3.org/2000/svg">
<path d="M43.3376 123.416C42.5483 124.134 42.0629 124.558 41.5998 125.006C35.6268 130.792 29.6723 136.599 23.6808 142.366C19.3197 146.564 13.3578 147.62 8.03697 145.21C2.66426 142.776 -0.477855 137.504 0.0594166 131.647C0.366958 128.292 1.98618 125.542 4.44652 123.193C11.8683 116.107 19.2604 108.993 26.6822 101.908C27.1601 101.452 27.7789 101.132 28.294 100.777C25.3705 95.5265 23.5104 90.366 22.8879 84.85C20.8722 67.0198 27.1157 52.4935 41.6517 41.3968C42.9189 40.4308 43.445 39.5366 43.3746 38.0139C43.2561 35.4498 43.3042 32.8749 43.3524 30.3073C43.471 23.739 48.8733 18.5246 55.6392 18.4384C57.7809 18.4097 59.9226 18.4349 62.2644 18.4349C62.2644 16.7219 62.3533 15.1812 62.2495 13.6514C61.6937 5.34503 68.2114 -0.0991831 76.1519 0.00136963C97.2241 0.270707 118.304 0.134256 139.383 0.0372945C141.784 0.026521 143.407 0.82376 145.015 2.3931C155.435 12.5705 165.913 22.694 176.377 32.8319C178.382 34.7747 180.349 36.7606 182.424 38.628C183.462 39.5617 183.88 40.5708 183.88 41.9247C183.892 57.101 183.969 72.2773 183.973 87.4571C183.98 107.176 183.766 126.899 183.999 146.614C184.092 154.519 177.811 160.3 170.352 159.758C168.648 159.636 166.929 159.74 164.998 159.74C164.998 161.895 165.013 163.906 164.994 165.917C164.939 172.844 159.648 178.055 152.478 178.062C120.245 178.091 88.0126 178.091 55.78 178.062C48.6918 178.055 43.3561 172.765 43.3413 165.824C43.3153 152.497 43.3339 139.174 43.3302 125.847C43.3376 125.186 43.3376 124.529 43.3376 123.416ZM68.0595 124.996C68.0595 132.652 68.0521 140.061 68.0632 147.469C68.0706 151.99 70.5754 154.414 75.2812 154.414C107.206 154.422 139.135 154.422 171.06 154.414C175.592 154.414 178.237 151.793 178.237 147.351C178.241 113.648 178.241 79.9408 178.237 46.2377C178.237 45.6128 178.182 44.9844 178.145 44.2805C169.159 44.2805 160.411 44.2877 151.663 44.2769C143.881 44.2661 138.661 39.2277 138.646 31.715C138.635 23.7067 138.642 15.6984 138.642 7.69008C138.642 7.05444 138.642 6.4188 138.642 5.59642C137.734 5.59642 137.071 5.59642 136.408 5.59642C119.582 5.59642 102.756 5.59642 85.9302 5.59642C82.2323 5.59642 78.5344 5.54973 74.8365 5.61078C70.9015 5.67183 68.1188 8.17848 68.0854 11.7804C68.0224 18.2948 68.0669 24.8092 68.078 31.32C68.078 31.5354 68.1855 31.7545 68.2373 31.9556C94.1968 30.3719 118.011 50.9852 118.489 77.4737C118.7 89.127 115.006 99.4876 107.236 108.347C97.061 119.946 83.896 125.279 68.0595 124.996ZM113.098 78.3356C113.179 55.88 94.1561 37.1951 71.0904 37.073C47.4097 36.9509 28.2532 55.1581 28.1495 77.8867C28.0457 100.82 46.7909 119.253 70.3827 119.411C93.8819 119.566 113.012 101.168 113.098 78.3356ZM159.481 160.042C158.595 160.042 157.928 160.042 157.261 160.042C130.083 160.042 102.908 160.042 75.7295 160.042C67.4518 160.042 62.2718 154.996 62.2681 146.923C62.2644 139.874 62.2384 132.821 62.294 125.771C62.3051 124.547 62.0198 123.965 60.6525 123.757C58.9629 123.502 57.2955 122.999 55.6652 122.471C53.5309 121.785 51.4411 120.97 49.2994 120.198C49.2253 120.489 49.1475 120.658 49.1475 120.826C49.1438 136.003 49.1105 151.182 49.2031 166.359C49.2105 167.63 49.8256 169.059 50.5852 170.133C52.0377 172.187 54.3572 172.575 56.8101 172.575C85.2188 172.554 113.631 172.561 142.04 172.561C145.616 172.561 149.191 172.604 152.763 172.55C156.457 172.492 159.247 170.169 159.455 166.905C159.592 164.71 159.481 162.502 159.481 160.042ZM31.0285 105.603C23.4696 112.904 15.6736 120.367 7.97769 127.919C6.20284 129.657 5.63593 131.973 6.12503 134.404C6.74382 137.464 8.58907 139.608 11.6867 140.506C14.8251 141.414 17.6449 140.714 19.9903 138.437C27.2157 131.431 34.4411 124.428 41.6628 117.422C41.9962 117.099 42.2964 116.743 42.4483 116.582C38.6096 112.886 34.8709 109.295 31.0285 105.603ZM144.389 10.2578C144.467 10.1357 144.356 10.229 144.356 10.3224C144.341 17.7274 144.271 25.136 144.363 32.541C144.408 36.01 146.942 38.6065 150.558 38.6783C158.254 38.8255 165.958 38.7214 173.654 38.7106C173.746 38.7106 173.839 38.5885 173.698 38.6855C163.935 29.2155 154.142 19.7169 144.389 10.2578ZM49.2105 36.2937C53.3568 35.0979 57.34 33.9631 61.3047 32.778C61.6752 32.6667 62.2014 32.2357 62.2088 31.9412C62.2792 29.3448 62.2495 26.7484 62.2495 24.1412C59.452 24.1412 56.8694 23.9545 54.3313 24.1915C51.6264 24.4465 49.4365 26.7233 49.2439 29.3269C49.0697 31.6863 49.2105 34.0672 49.2105 36.2937Z" fill="#501A89"/>
<path d="M123.196 136.075C135.764 136.075 148.336 136.075 160.905 136.078C161.461 136.078 162.024 136.035 162.565 136.121C164.017 136.355 164.888 137.184 164.977 138.642C165.062 140.072 164.373 141.081 162.954 141.476C162.261 141.67 161.498 141.68 160.764 141.68C135.623 141.691 110.483 141.691 85.3421 141.687C84.79 141.687 84.2268 141.695 83.6858 141.612C82.1185 141.375 81.2848 140.456 81.2774 138.922C81.27 137.389 82.1593 136.481 83.6451 136.143C84.175 136.024 84.7493 136.078 85.3014 136.078C97.9328 136.075 110.564 136.075 123.196 136.075Z" fill="#501A89"/>
<path d="M134.328 116.337C143.198 116.337 152.069 116.337 160.936 116.337C161.428 116.337 161.925 116.305 162.414 116.359C163.97 116.538 164.893 117.389 164.974 118.923C165.052 120.435 164.27 121.437 162.747 121.781C162.099 121.928 161.402 121.918 160.728 121.918C143.05 121.925 125.372 121.925 107.694 121.921C104.778 121.921 103.37 121.041 103.307 119.196C103.244 117.278 104.696 116.337 107.716 116.337C116.59 116.337 125.457 116.337 134.328 116.337Z" fill="#501A89"/>
<path d="M103.08 23.9757C97.2333 23.9757 91.3863 23.9757 85.5393 23.9721C84.9242 23.9721 84.3018 23.99 83.6978 23.9038C82.1193 23.6776 81.3079 22.6973 81.2893 21.2035C81.2708 19.6774 82.1934 18.7904 83.6941 18.4708C84.0498 18.3954 84.4314 18.4349 84.7983 18.4349C97.048 18.4349 109.294 18.4349 121.544 18.4349C121.788 18.4349 122.037 18.4241 122.281 18.4421C123.923 18.5678 124.905 19.408 125.068 21.006C125.22 22.4819 124.097 23.7674 122.467 23.9254C121.307 24.0367 120.132 23.9792 118.961 23.9792C113.67 23.9792 108.375 23.9757 103.08 23.9757Z" fill="#501A89"/>
<path d="M144.663 102.404C139.002 102.404 133.34 102.407 127.678 102.4C125.299 102.397 123.954 101.373 123.973 99.617C123.991 97.9256 125.31 96.9057 127.571 96.9057C138.894 96.8949 150.218 96.8985 161.541 96.8985C161.786 96.8985 162.034 96.8949 162.278 96.9129C163.968 97.0386 165.265 98.256 165.295 99.7427C165.328 101.204 164.02 102.382 162.201 102.393C156.357 102.418 150.51 102.4 144.663 102.404Z" fill="#501A89"/>
<path d="M145.057 62.9186C139.699 62.9186 134.341 62.9258 128.987 62.915C126.738 62.9114 125.437 61.8879 125.426 60.1677C125.415 58.4438 126.704 57.3916 128.957 57.388C139.795 57.3736 150.629 57.3736 161.468 57.388C163.872 57.3916 164.991 58.2894 164.991 60.1066C164.991 61.9274 163.72 62.9078 161.312 62.9114C155.891 62.9222 150.474 62.9186 145.057 62.9186Z" fill="#501A89"/>
<path d="M147.115 82.6596C142.372 82.6596 137.629 82.6668 132.89 82.656C130.738 82.6489 129.519 81.6756 129.467 79.9805C129.411 78.2028 130.641 77.1577 132.916 77.1541C142.461 77.1397 152.006 77.1397 161.555 77.1541C163.774 77.1577 165.053 78.2602 164.99 80.0056C164.93 81.672 163.685 82.6489 161.525 82.656C156.719 82.6704 151.917 82.6596 147.115 82.6596Z" fill="#501A89"/>
<path d="M116.214 43.4871C114.305 43.4871 112.393 43.5266 110.485 43.4763C108.466 43.426 107.324 42.3809 107.328 40.7073C107.332 39.0948 108.569 37.9097 110.485 37.8845C114.302 37.8342 118.122 37.8378 121.938 37.8845C123.909 37.9097 125.08 39.0194 125.08 40.6786C125.08 42.3342 123.902 43.426 121.938 43.4763C120.034 43.5266 118.122 43.4871 116.214 43.4871Z" fill="#501A89"/>
<path d="M36.4806 78.1743C36.5288 59.9024 51.7613 45.1392 70.5881 45.114C89.4556 45.0925 104.803 60.1071 104.736 78.5298C104.673 96.5251 89.1925 111.367 70.5288 111.324C51.7984 111.278 36.4324 96.3168 36.4806 78.1743ZM93.7686 93.882C101.435 84.0171 101.061 68.1621 89.9224 58.1104C78.7064 47.987 61.2099 48.2743 50.3348 58.7676C39.4856 69.2359 39.9636 84.8107 47.2001 93.8461C49.4974 90.2082 52.4802 87.2563 56.0484 84.843C57.5564 83.8231 58.8459 83.7729 60.3947 84.8897C66.4826 89.2925 74.4342 89.3104 80.4998 84.922C82.0375 83.8088 83.327 83.8555 84.8795 84.7533C88.6848 86.9546 91.5231 90.0251 93.7686 93.882ZM51.1759 98.4535C62.9884 108.922 79.0918 108.085 89.463 98.3925C88.2624 95.2718 86.3246 92.6395 83.7308 90.4273C83.0231 89.824 82.4821 89.7593 81.6299 90.2154C74.1378 94.2124 66.616 94.1729 59.0608 90.3124C58.5532 90.0538 57.5713 90.0107 57.1711 90.316C54.3662 92.4635 52.3986 95.2251 51.1759 98.4535Z" fill="#501A89"/>
<path d="M82.9258 71.2718C82.9369 77.9299 77.5123 83.2412 70.6686 83.2664C63.8434 83.2915 58.3484 78.0196 58.278 71.3724C58.2076 64.664 63.7137 59.3024 70.6538 59.3204C77.5272 59.3347 82.9147 64.5814 82.9258 71.2718ZM70.6167 77.639C74.3258 77.639 77.1715 74.9384 77.2307 71.3616C77.29 67.7489 74.348 64.8795 70.6056 64.901C66.967 64.919 64.0361 67.6339 64.0176 71.0025C63.9953 74.8702 66.7521 77.639 70.6167 77.639Z" fill="#501A89"/>
</svg>
