<svg width="184" height="179" viewBox="0 0 184 179" fill="none" xmlns="http://www.w3.org/2000/svg">
<path d="M75.0175 69.0755C72.5599 69.0755 70.3548 69.0755 67.8861 69.0755C67.8861 69.8732 67.8861 70.6242 67.8861 71.3752C67.8861 103.475 67.8898 135.578 67.8824 167.678C67.8824 172.644 65.1909 176.643 60.8252 178.264C53.9723 180.808 46.6256 175.68 46.581 168.217C46.5179 157.397 46.5624 146.577 46.5624 135.758C46.5624 132.531 46.5847 129.3 46.5587 126.074C46.5253 122.114 43.8747 119.314 40.2255 119.332C36.5837 119.35 33.9071 122.193 33.9034 126.12C33.8885 140.109 33.9182 154.095 33.8848 168.084C33.8699 174.221 29.1702 178.907 23.197 178.864C17.3872 178.821 12.6874 174.243 12.6762 168.508C12.6503 154.159 12.6651 139.815 12.6651 125.466C12.6651 118.714 12.6651 111.962 12.6651 105.031C12.0786 104.984 11.5551 104.909 11.0317 104.905C8.37738 104.891 5.71937 104.934 3.06505 104.883C1.06039 104.847 0.0469207 103.917 0.0469207 102.027C0.0320714 89.7122 -0.0830363 77.3977 0.113717 65.0868C0.239937 57.2928 7.30824 51.1769 15.7761 51.1625C34.6756 51.1302 53.5788 51.1517 72.4782 51.1517C73.217 51.1517 73.9557 51.1517 75.01 51.1517C75.01 50.3971 75.01 49.7144 75.01 49.0316C75.01 34.3276 75.01 19.6199 75.01 4.91584C75.01 1.49855 75.6894 0.840953 79.2198 0.840953C112.761 0.840953 146.298 0.837359 179.839 0.840953C183.343 0.840953 183.986 1.44464 183.986 4.75414C183.986 31.1762 183.986 57.5983 183.986 84.0203C183.986 87.628 183.436 88.1599 179.709 88.1599C146.168 88.1599 112.631 88.1599 79.0899 88.1599C75.7117 88.1599 75.0175 87.4663 75.0138 84.1353C75.0175 79.1728 75.0175 74.2212 75.0175 69.0755ZM80.9312 82.529C113.448 82.529 145.778 82.529 178.172 82.529C178.172 57.1131 178.172 31.8122 178.172 6.44303C145.708 6.44303 113.377 6.44303 80.9758 6.44303C80.9758 21.3771 80.9758 36.2105 80.9758 51.1481C81.7888 51.1481 82.4607 51.1481 83.1363 51.1481C89.7443 51.1481 96.3523 51.1302 102.96 51.1589C107.296 51.1769 110.786 53.5665 112.033 57.2784C114.008 63.1572 109.531 68.921 102.834 68.9928C96.2261 69.0647 89.6181 69.0108 83.0101 69.0108C82.3493 69.0108 81.6886 69.0108 80.9312 69.0108C80.9312 73.5995 80.9312 77.9942 80.9312 82.529ZM62.08 117.625C62.08 100.945 62.08 84.2682 62.08 67.5878C62.08 64.0627 62.7742 63.3872 66.4049 63.3872C78.4514 63.3836 90.4942 63.3944 102.541 63.3764C104.879 63.3728 106.721 61.8025 106.713 59.9196C106.71 58.033 105.095 56.7789 102.574 56.7789C86.8227 56.7718 71.0713 56.7861 55.3199 56.7538C54.195 56.7502 53.5639 57.0557 53.0256 58.0582C49.9666 63.786 46.8149 69.4671 43.7262 75.1806C43.4218 75.7412 43.1434 76.4023 43.1434 77.0168C43.11 88.9719 43.1025 100.931 43.1656 112.886C43.1693 113.393 43.7485 114.151 44.2496 114.366C49.6956 116.695 52.3945 120.651 52.3648 126.451C52.3054 136.674 52.35 146.897 52.35 157.117C52.35 161.001 52.3017 164.889 52.3722 168.774C52.4168 171.296 54.5922 173.298 57.1426 173.348C59.641 173.398 61.7384 171.584 62.0206 169.09C62.0948 168.439 62.08 167.778 62.08 167.121C62.08 150.623 62.08 134.123 62.08 117.625ZM18.668 56.7825C18.668 57.6198 18.668 58.263 18.668 58.9026C18.668 94.998 18.668 131.09 18.668 167.185C18.668 167.724 18.6383 168.267 18.7051 168.795C18.9947 171.091 20.9622 172.942 23.2193 173.086C25.6174 173.236 27.4885 171.796 28.0416 169.284C28.2049 168.536 28.2012 167.742 28.2012 166.97C28.2087 153.225 28.1938 139.48 28.2124 125.736C28.2198 120.213 30.9966 116.404 36.4055 114.686C37.6565 114.287 37.6417 113.615 37.638 112.695C37.6306 100.985 37.638 89.2702 37.6157 77.5594C37.6157 76.8659 37.5415 76.0897 37.2222 75.4932C34.037 69.5606 30.8036 63.6567 27.5479 57.7599C27.3214 57.3539 26.8017 56.84 26.4008 56.8257C23.8949 56.743 21.3817 56.7825 18.668 56.7825ZM12.5871 57.2389C8.45161 58.4175 5.74533 62.1007 5.7342 66.5529C5.7045 77.0024 5.72305 87.4484 5.73048 97.8979C5.73048 98.3004 5.81586 98.7028 5.86783 99.1628C8.13978 99.1628 10.3189 99.1628 12.5871 99.1628C12.5871 85.1486 12.5871 71.253 12.5871 57.2389ZM47.0859 56.8652C42.4083 56.8652 38.0612 56.8652 33.4356 56.8652C35.7373 61.1377 37.9424 65.227 40.2589 69.5318C42.5717 65.2378 44.7545 61.188 47.0859 56.8652Z" fill="#501A89"/>
<path d="M160.262 152.715C164.52 152.715 168.778 152.697 173.033 152.718C179.644 152.751 183.951 156.883 183.984 163.225C184.006 167.286 183.999 171.346 183.988 175.407C183.98 178.048 183.164 178.867 180.502 178.871C167.052 178.882 153.602 178.878 140.153 178.871C137.405 178.867 136.559 178.023 136.552 175.296C136.537 171.235 136.522 167.175 136.555 163.114C136.604 157.027 140.984 152.786 147.306 152.725C151.627 152.679 155.945 152.715 160.262 152.715ZM178.456 173.276C178.456 169.413 178.575 165.716 178.412 162.029C178.319 159.927 176.5 158.378 174.317 158.367C165.181 158.313 156.041 158.32 146.905 158.363C144.93 158.371 142.985 159.686 142.885 161.454C142.666 165.356 142.818 169.277 142.818 173.276C154.683 173.276 166.451 173.276 178.456 173.276Z" fill="#501A89"/>
<path d="M62.0775 22.0692C61.9996 33.7908 52.0877 43.2702 40.0523 43.1336C28.0726 42.9971 18.3129 33.4099 18.3871 21.8464C18.4651 10.1464 28.3288 0.760423 40.4644 0.843071C52.496 0.922125 62.1555 10.4087 62.0775 22.0692ZM40.2268 37.5136C49.1698 37.5315 56.394 30.5712 56.3866 21.9434C56.3791 13.4199 49.2069 6.43079 40.3901 6.35174C31.4917 6.27268 24.2118 13.2439 24.1784 21.8752C24.1413 30.5604 31.2615 37.4956 40.2268 37.5136Z" fill="#501A89"/>
<path d="M105.371 178.871C98.644 178.871 91.9209 178.878 85.1942 178.867C82.5361 178.864 81.66 178.009 81.6526 175.425C81.6377 171.246 81.6229 167.063 81.66 162.884C81.712 157.005 86.1259 152.744 92.2216 152.722C100.797 152.69 109.376 152.693 117.952 152.718C124.415 152.736 128.74 156.916 128.781 163.161C128.81 167.282 128.799 171.4 128.781 175.522C128.77 178.041 127.942 178.857 125.365 178.864C118.698 178.882 112.034 178.871 105.371 178.871ZM123.268 173.28C123.268 169.428 123.402 165.734 123.216 162.051C123.105 159.851 121.256 158.371 118.947 158.36C109.929 158.317 100.912 158.321 91.8949 158.353C89.7195 158.36 87.7408 159.708 87.6369 161.626C87.429 165.471 87.5738 169.338 87.5738 173.276C99.4978 173.28 111.277 173.28 123.268 173.28Z" fill="#501A89"/>
<path d="M160.545 114.927C169.269 114.963 176.074 121.514 175.97 129.779C175.862 138.076 168.994 144.687 160.467 144.695C151.892 144.705 144.931 138.05 144.953 129.854C144.972 121.467 151.84 114.891 160.545 114.927ZM160.445 139.366C165.917 139.358 170.205 135.215 170.212 129.933C170.219 124.676 165.861 120.429 160.467 120.439C155.155 120.45 150.652 124.805 150.64 129.94C150.629 135.179 154.995 139.373 160.445 139.366Z" fill="#501A89"/>
<path d="M105.241 114.923C113.831 114.913 120.837 121.571 120.781 129.696C120.729 138.025 113.802 144.698 105.208 144.695C96.5432 144.695 89.7237 138.173 89.7422 129.908C89.7645 121.51 96.5655 114.934 105.241 114.923ZM115.001 129.955C115.008 124.679 110.75 120.497 105.315 120.443C99.8694 120.389 95.3961 124.712 95.4406 129.987C95.4852 135.244 99.8063 139.373 105.256 139.369C110.713 139.362 114.993 135.226 115.001 129.955Z" fill="#501A89"/>
<path d="M141.053 62.2515C147.215 56.2937 153.17 50.5407 159.165 44.7446C157.168 44.7446 155.033 44.7626 152.899 44.741C150.694 44.7194 149.543 43.7852 149.509 42.046C149.476 40.2493 150.686 39.2467 152.973 39.2395C157.357 39.2252 161.742 39.2252 166.126 39.2395C168.628 39.2503 169.608 40.1666 169.623 42.585C169.652 46.8862 169.656 51.1911 169.619 55.4924C169.601 57.6736 168.639 58.6725 166.742 58.6617C164.89 58.6474 163.928 57.5765 163.91 55.4457C163.891 53.3651 163.906 51.2881 163.906 48.8087C163.182 49.4483 162.696 49.8436 162.246 50.2748C156.258 56.0601 150.282 61.8526 144.297 67.6416C142.048 69.8156 140.871 69.8048 138.584 67.5841C135.97 65.0471 133.368 62.503 130.614 59.8224C130.046 60.3398 129.559 60.7638 129.099 61.2094C124.949 65.2196 120.798 69.2334 116.652 73.2508C115.623 74.2462 114.428 74.5804 113.121 73.9048C111.903 73.276 111.354 72.198 111.699 70.8936C111.855 70.3007 112.293 69.7113 112.75 69.2658C117.88 64.2566 123.029 59.269 128.197 54.2958C129.853 52.7039 131.282 52.7362 132.982 54.3784C135.777 57.077 138.543 59.8044 141.053 62.2515Z" fill="#501A89"/>
<path d="M127.006 35.6248C127.006 31.1618 127.006 26.9647 127.006 22.4119C126.244 23.1018 125.758 23.6085 125.205 24.0361C123.976 24.9883 122.41 24.9093 121.352 23.8816C120.271 22.8359 120.13 21.3015 121.233 20.1804C123.482 17.8878 125.754 15.5916 128.212 13.5147C128.858 12.9685 130.413 12.8319 131.193 13.2056C131.969 13.5757 132.726 14.8155 132.748 15.6922C132.882 21.5423 132.819 27.3995 132.823 33.2532C132.823 33.9611 132.823 34.6653 132.823 35.6248C134.304 35.6248 135.64 35.596 136.973 35.632C138.978 35.6859 140.065 36.71 140.025 38.4528C139.984 40.1129 138.926 41.1047 137.007 41.1191C132.192 41.1514 127.377 41.155 122.566 41.1155C120.672 41.1011 119.633 40.0518 119.633 38.3665C119.637 36.6884 120.683 35.7074 122.58 35.6356C123.319 35.6068 124.062 35.6284 124.8 35.6284C125.472 35.6248 126.144 35.6248 127.006 35.6248Z" fill="#501A89"/>
<path d="M103.511 22.4766C105.363 21.8981 106.986 21.3662 108.623 20.8919C110.382 20.3852 111.834 21.0285 112.398 22.5018C113 24.0685 112.268 25.531 110.468 26.1922C108.924 26.7563 107.346 27.2271 105.56 27.8128C106.607 29.207 107.554 30.4288 108.456 31.6829C109.466 33.0879 109.35 34.8235 108.229 35.7363C106.978 36.7568 105.248 36.552 103.964 35.1721C102.772 33.8965 101.633 32.5777 100.367 31.1619C99.4459 32.3621 98.644 33.4113 97.8385 34.4606C96.3572 36.3867 94.605 36.9077 93.1572 35.8476C91.7354 34.8056 91.7688 33.0556 93.2463 31.0936C94.0073 30.0838 94.7721 29.0741 95.7113 27.8308C94.1781 27.3169 92.7674 26.8498 91.3567 26.3754C89.289 25.6783 88.2792 24.2158 88.7989 22.6778C89.3632 20.9961 91.0709 20.3565 93.2092 21.032C94.5531 21.4561 95.8969 21.8945 97.2408 22.3221C97.2965 22.3401 97.3596 22.3257 97.7717 22.3257C97.7717 20.8919 97.7457 19.4402 97.7791 17.9884C97.8274 15.8072 98.7443 14.7831 100.597 14.7615C102.531 14.74 103.489 15.8252 103.511 18.0747C103.518 19.4402 103.511 20.8129 103.511 22.4766Z" fill="#501A89"/>
<path d="M157.272 26.1343C157.194 29.0126 156.114 31.9699 153.437 34.2337C150.274 36.9107 145.92 36.7562 142.917 33.9103C138.521 29.7456 138.321 21.9948 142.497 17.6289C145.875 14.0966 151.039 14.1326 154.347 17.7546C156.396 20.0005 157.28 22.6775 157.272 26.1343ZM144.932 25.7534C145.467 27.0218 145.797 28.3226 146.51 29.3791C147.609 31.0068 148.997 30.9422 150.252 29.415C151.934 27.3668 151.926 23.7663 150.234 21.7109C148.979 20.1873 147.568 20.1694 146.532 21.8654C145.835 23.0117 145.489 24.3628 144.932 25.7534Z" fill="#501A89"/>
</svg>
