<svg width="185" height="179" viewBox="0 0 185 179" fill="none" xmlns="http://www.w3.org/2000/svg">
<path d="M91.8474 91.5883C82.3329 91.5883 72.8222 91.5919 63.3077 91.5883C59.9927 91.5883 59.2354 90.866 59.2317 87.7176C59.2242 83.5306 59.3208 79.3436 59.2057 75.1638C59.0795 70.5635 60.8057 66.7611 64.1541 63.6128C64.9745 62.8401 65.1898 62.2111 64.7852 61.1473C60.6683 50.3258 60.0669 39.0766 60.8947 27.7376C61.8228 15.0041 73.2639 3.37039 86.5352 1.2751C103.738 -1.44195 119.522 9.07405 122.522 25.6854C123.361 30.3361 123.012 35.2167 122.911 39.9895C122.759 47.2637 121.289 54.3439 118.891 61.2336C118.576 62.1356 118.605 62.7143 119.44 63.3828C122.952 66.1968 124.474 69.9418 124.508 74.2833C124.545 78.8261 124.526 83.3725 124.511 87.9153C124.504 90.733 123.643 91.5776 120.751 91.5812C111.121 91.5919 101.484 91.5848 91.8474 91.5883ZM82.8304 59.7169C82.8304 57.9343 82.5965 56.5182 82.9046 55.228C83.157 54.175 82.9195 53.6287 82.2179 52.9171C76.5047 47.0697 73.3048 40.0937 72.4435 32.1115C72.1948 29.8113 73.5683 28.7799 75.8996 28.9236C78.1455 29.0638 80.5176 29.1572 82.6596 28.6217C89.8985 26.8175 95.749 22.8857 100.137 16.9952C101.659 14.9502 103.337 14.7022 105.23 16.3734C109.911 20.5173 112.439 25.6208 112.042 31.806C111.519 39.9787 108.218 47.0409 102.375 52.9782C102.008 53.3519 101.406 53.794 101.425 54.1857C101.496 55.8929 101.755 57.5892 101.989 59.645C105.802 59.645 109.651 59.645 113.735 59.645C114.206 58.1787 114.796 56.4248 115.331 54.6566C117.629 47.0337 117.662 39.2096 117.588 31.3675C117.536 25.61 115.751 20.4526 112.098 15.9062C105.835 8.10008 95.374 4.71454 85.4364 7.26987C75.6101 9.79285 68.0519 17.8074 66.7898 27.4177C65.9137 34.0846 66.0733 40.8125 67.2872 47.4219C68.0779 51.7203 69.5443 55.9037 70.5911 59.7169C74.9678 59.7169 78.7209 59.7169 82.8304 59.7169ZM119.04 85.8883C119.04 81.9601 119.066 78.1504 119.032 74.3408C118.991 69.1655 114.878 65.1941 109.499 65.1294C106.782 65.0971 104.064 65.0576 101.351 65.1618C100.586 65.1905 99.6951 65.5499 99.116 66.0387C97.5383 67.3757 96.1239 68.8851 94.6019 70.2832C92.4562 72.2527 91.5616 72.2635 89.4419 70.3263C87.8716 68.8887 86.3867 67.3649 84.7979 65.9489C84.345 65.5463 83.6619 65.169 83.0754 65.1582C79.9274 65.0863 76.772 65.0288 73.6314 65.169C69.3772 65.3595 65.6538 68.5653 65.1304 72.6157C64.9262 74.1827 65.5016 75.8323 65.5462 77.446C65.6241 80.3464 65.5685 83.2503 65.5685 86.1686C68.0965 86.1686 70.3424 86.1686 72.7294 86.1686C72.7294 83.6744 72.696 81.2952 72.7405 78.916C72.7739 77.0794 73.8133 76.0156 75.5061 75.9581C77.2991 75.897 78.4351 77.0327 78.4833 79.0885C78.539 81.4461 78.4945 83.8074 78.4945 86.1758C87.853 86.1758 96.896 86.1758 106.084 86.1758C106.084 83.6277 105.935 81.1766 106.162 78.7578C106.243 77.8701 107.03 76.6625 107.825 76.3211C108.642 75.9725 110.071 76.2133 110.836 76.738C111.47 77.1729 111.752 78.3769 111.804 79.2646C111.938 81.4425 111.849 83.6349 111.849 85.8955C114.318 85.8883 116.526 85.8883 119.04 85.8883ZM78.1604 34.8717C79.9051 41.0749 82.3441 46.6599 87.5746 50.6493C90.4887 52.8703 93.414 52.8488 96.432 50.7751C97.3786 50.1245 98.2807 49.359 99.038 48.5108C103.352 43.6626 105.798 38.0056 106.347 31.6515C106.644 28.2264 105.482 25.1392 103.237 22.3359C96.3726 29.3262 88.5287 34.1421 78.1604 34.8717ZM91.9365 64.9569C94.5017 62.8508 96.7884 60.8095 95.5225 57.4383C92.9834 57.4383 90.5555 57.4383 88.1463 57.4383C86.7505 61.079 89.5941 62.8329 91.9365 64.9569Z" fill="#501A89"/>
<path d="M158.307 143.88C161.734 143.88 164.447 143.858 167.161 143.884C177.013 143.977 183.937 150.676 183.985 160.175C184.011 165.315 184.004 170.458 183.985 175.597C183.978 178.088 183.12 178.918 180.533 178.918C159.102 178.925 137.671 178.925 116.24 178.918C113.553 178.918 112.736 178.102 112.729 175.475C112.717 170.393 112.714 165.311 112.729 160.233C112.758 151.169 119.852 144.247 129.229 144.135C132.062 144.103 134.894 144.132 137.816 144.132C138.146 142.396 138.009 141.174 136.531 139.826C128.539 132.545 124.125 123.47 123.661 112.882C123.156 101.356 133.02 90.4159 144.843 88.8094C157.12 87.1418 168.776 94.5382 172.132 105.978C174.036 112.472 172.837 118.661 170.454 124.728C168.097 130.722 164.629 136.02 159.555 140.297C158.797 140.94 158.786 142.424 158.307 143.88ZM178.057 173.326C178.057 168.068 178.261 162.939 177.941 157.839C177.838 156.161 176.601 154.407 175.491 152.966C173.88 150.874 171.456 149.702 168.795 149.555C165.041 149.346 161.069 148.786 157.572 149.717C155.174 150.353 153.407 153.257 151.384 155.165C149.309 157.124 148.017 157.192 145.883 155.194C144.335 153.742 143.017 152.049 141.417 150.658C140.678 150.015 139.527 149.548 138.532 149.497C135.577 149.35 132.608 149.429 129.645 149.451C123.357 149.494 118.791 153.878 118.735 159.97C118.698 163.974 118.72 167.978 118.731 171.981C118.731 172.431 118.835 172.88 118.891 173.311C121.742 173.311 124.433 173.311 127.355 173.311C127.355 172.567 127.355 171.927 127.355 171.284C127.355 169.192 127.34 167.101 127.366 165.009C127.384 163.478 127.993 162.321 129.697 162.026C131.694 161.681 133.098 162.871 133.131 164.998C133.176 167.773 133.142 170.551 133.142 173.297C143.559 173.297 153.656 173.297 163.913 173.297C163.913 170.382 163.872 167.582 163.928 164.786C163.965 162.874 165.301 161.771 167.187 162.012C169.006 162.245 169.633 163.421 169.633 165.049C169.633 167.78 169.633 170.511 169.633 173.326C172.577 173.326 175.272 173.326 178.057 173.326ZM135.421 108.821C134.115 109.902 133.042 111.009 131.761 111.8C129.627 113.119 129.189 114.74 129.76 117.09C131.598 124.595 134.776 131.33 141.034 136.361C145.226 139.733 150.055 140.175 154.38 137.307C162.209 132.113 165.364 124.336 166.842 115.613C159.124 113.083 152.609 108.875 145.797 104.695C145.515 107.153 145.24 109.381 145.01 111.613C144.873 112.939 144.494 114.133 143.061 114.582C141.662 115.02 140.556 114.438 139.627 113.403C138.295 111.915 136.929 110.456 135.421 108.821ZM166.738 110.068C167.046 103.146 159.982 96.1052 151.733 94.6496C143.269 93.1581 133.977 97.8482 131.709 104.562C132.953 103.901 134.375 102.546 135.759 102.578C137.203 102.61 138.614 103.98 140.084 104.792C140.299 103.376 140.511 101.741 140.797 100.12C141.376 96.8168 143.414 96.0512 146.328 97.9632C149.899 100.31 153.437 102.714 157.105 104.907C160.171 106.736 163.404 108.296 166.738 110.068ZM148.555 150.198C149.814 148.096 153.04 147.345 152.921 144.419C149.792 144.419 146.9 144.419 143.963 144.419C143.67 146.033 144.65 147.359 148.555 150.198Z" fill="#501A89"/>
<path d="M45.6 143.876C48.7666 143.876 51.2872 143.869 53.8078 143.876C64.0907 143.912 70.9584 150.583 70.9806 160.567C70.9918 165.412 70.9881 170.253 70.9806 175.097C70.9769 178.253 70.3087 178.918 67.1125 178.918C45.9861 178.921 24.856 178.921 3.72966 178.918C0.785847 178.918 0.0174124 178.174 0.0137001 175.309C0.00256338 170.346 -0.00114886 165.383 0.0137001 160.42C0.0396858 150.87 6.97415 144.056 16.8599 143.884C19.5735 143.837 22.2909 143.876 25.0602 143.876C25.5242 142.126 25.2978 140.911 23.8166 139.589C15.8241 132.451 11.5031 123.455 10.9574 113.019C10.3412 101.187 20.0264 90.3155 31.9984 88.7737C44.8873 87.1132 56.6365 94.869 59.7251 107.071C60.9687 111.991 60.3562 116.821 58.8527 121.565C56.5512 128.839 52.7981 135.251 46.788 140.34C46.0492 140.962 46.0604 142.403 45.6 143.876ZM14.2798 173.333C14.3133 172.621 14.3652 171.981 14.3689 171.342C14.3838 169.131 14.3207 166.917 14.4098 164.707C14.4877 162.73 16.0098 161.609 17.9178 162.048C19.4659 162.4 20.1155 163.449 20.1044 164.955C20.0858 167.737 20.1006 170.519 20.1006 173.286C30.61 173.286 40.8261 173.286 51.1981 173.286C51.1981 170.357 51.1573 167.557 51.213 164.757C51.2538 162.792 52.7461 161.649 54.6728 162.04C56.2505 162.36 56.8927 163.41 56.889 164.912C56.8815 167.697 56.8853 170.486 56.8853 173.282C59.9145 173.282 62.6541 173.282 65.4754 173.282C65.5125 172.625 65.5682 172.096 65.5645 171.572C65.5311 167.209 65.7241 162.831 65.3789 158.493C65.0151 153.911 61.6592 150.328 56.9521 149.753C52.876 149.253 48.6998 149.533 44.568 149.469C42.6488 151.223 40.7333 152.976 38.8141 154.734C38.5468 154.982 38.2943 155.244 38.0233 155.492C36.2675 157.099 34.9719 157.091 33.2123 155.471C31.0332 153.465 29.1697 150.68 26.5748 149.684C23.9577 148.682 20.6129 149.454 17.5875 149.451C17.3387 149.451 17.0937 149.451 16.845 149.451C10.3152 149.472 5.75654 153.821 5.70086 160.125C5.66745 164.01 5.68972 167.895 5.70086 171.784C5.70086 172.294 5.78624 172.808 5.83078 173.34C8.71148 173.333 11.4103 173.333 14.2798 173.333ZM22.6992 108.835C20.9582 110.269 19.258 111.552 17.7174 112.993C17.1902 113.486 16.7225 114.427 16.8153 115.089C17.9587 123.064 21.0807 130.183 27.2913 135.707C32.6443 140.469 38.4948 140.265 43.7662 135.384C48.4436 131.053 51.2612 125.666 53.0728 119.736C53.4848 118.388 53.7113 116.986 54.0268 115.581C46.3351 113.058 39.8461 108.828 33.0489 104.699C32.7742 107.168 32.5218 109.356 32.2954 111.552C32.158 112.864 31.8165 114.093 30.3873 114.564C28.9135 115.053 27.7738 114.402 26.8087 113.317C25.4945 111.836 24.1284 110.388 22.6992 108.835ZM18.7531 104.127C20.1341 103.487 21.6969 102.147 23.1113 102.283C24.5925 102.424 25.9326 103.98 27.3507 104.929C27.6402 103.027 27.8407 101.123 28.2453 99.2609C28.7056 97.1261 30.6731 96.321 32.6592 97.3776C33.3571 97.7478 33.9659 98.2761 34.6489 98.6787C40.4734 102.14 46.2979 105.597 52.141 109.029C52.7201 109.371 53.418 109.525 54.1605 109.802C53.496 102.395 46.8622 95.9293 38.8215 94.6139C30.287 93.2158 21.7749 97.3129 18.7531 104.127ZM35.7218 150.597C37.047 148.017 40.4549 147.345 40.1468 144.416C36.9839 144.416 34.0958 144.416 30.9887 144.416C31.1186 147.284 34.1106 148.142 35.7218 150.597Z" fill="#501A89"/>
<path d="M0.0120277 29.1424C0.00831543 22.6876 0.00089094 16.2293 0.0120277 9.77447C0.0194522 4.05646 3.28252 0.854229 9.13302 0.847041C18.5844 0.836259 28.0321 0.836259 37.4834 0.850635C43.2077 0.857823 46.5376 4.08162 46.545 9.66306C46.5636 22.817 46.5636 35.9674 46.545 49.1213C46.5376 54.6309 43.1001 58.0811 37.4018 57.8295C34.3429 57.6965 32.639 58.48 31.4845 61.3552C29.9884 65.0678 28.0024 68.6078 26.0349 72.1228C25.5226 73.0356 24.2641 74.1677 23.3992 74.1282C22.3857 74.0779 21.0382 73.068 20.5148 72.1192C18.1835 67.9142 16.0155 63.6158 13.9664 59.2743C13.3093 57.8834 12.4926 57.4234 11.03 57.5815C10.1762 57.6714 9.30378 57.6103 8.43883 57.5959C3.5795 57.524 0.0565746 54.1493 0.0231644 49.4124C-0.0213825 42.6558 0.0120277 35.8991 0.0120277 29.1424ZM23.2507 64.7587C23.6405 64.0471 23.9375 63.5332 24.2122 63.0048C25.7639 60.0218 27.3453 57.0532 28.8376 54.0415C29.5392 52.6254 30.5787 51.9713 32.1898 52.0181C33.7935 52.0684 35.4009 52.0324 37.0046 52.0252C40.1266 52.0109 40.8282 51.3424 40.8282 48.3486C40.8319 35.6223 40.8319 22.8961 40.8319 10.1734C40.8319 7.07899 40.1006 6.3566 36.9377 6.3566C27.865 6.35301 18.7923 6.3566 9.71584 6.3566C6.41194 6.3566 5.69919 7.04665 5.69919 10.2489C5.69919 22.914 5.69919 35.5792 5.69919 48.248C5.69919 48.6649 5.67692 49.0854 5.71404 49.5023C5.86624 51.3496 6.6421 52.0396 8.53535 52.0396C10.2021 52.0396 11.8764 52.1331 13.532 52.0109C15.7482 51.8456 17.1069 52.7369 18.0424 54.6596C19.6647 57.9948 21.4391 61.2654 23.2507 64.7587Z" fill="#501A89"/>
<path d="M183.721 29.2639C183.721 35.8409 183.736 42.4143 183.714 48.9914C183.695 54.6447 180.313 58.095 174.515 57.8218C171.393 57.6745 169.774 58.5909 168.631 61.405C167.19 64.9487 165.223 68.2912 163.497 71.7234C162.862 72.9849 162.238 74.2931 160.505 74.268C158.745 74.2428 157.999 72.9562 157.331 71.6336C155.192 67.3962 153.017 63.1769 150.938 58.9144C150.444 57.9045 149.862 57.4948 148.703 57.5738C147.352 57.6673 145.975 57.6852 144.635 57.5199C140.355 56.9988 137.485 53.6276 137.459 49.0884C137.418 42.1556 137.448 35.2191 137.448 28.2863C137.448 22.0687 137.433 15.8511 137.455 9.63704C137.478 4.05556 140.789 0.860489 146.543 0.853301C155.991 0.842519 165.442 0.842519 174.89 0.853301C180.688 0.860489 183.732 3.88305 183.725 9.54C183.714 16.1134 183.721 22.6869 183.721 29.2639ZM160.627 64.6253C160.839 64.4348 160.902 64.4024 160.928 64.3521C162.706 60.9414 164.51 57.5451 166.236 54.1128C166.971 52.6501 168.044 51.9456 169.741 52.0139C171.344 52.0786 172.952 52.0355 174.555 52.0247C177.514 52.0067 178.294 51.2664 178.294 48.4199C178.297 35.6289 178.297 22.8378 178.29 10.0468C178.29 7.15718 177.447 6.35572 174.407 6.35212C165.208 6.34494 156.005 6.34494 146.806 6.34853C143.607 6.34853 142.864 7.06014 142.864 10.1366C142.86 22.8666 142.864 35.5965 142.864 48.3301C142.864 48.747 142.834 49.1711 142.886 49.5844C143.091 51.1765 143.955 52.0786 145.693 52.0606C147.423 52.0427 149.16 52.1469 150.875 51.9995C153.277 51.7947 154.643 52.8477 155.616 54.8819C157.175 58.1309 158.905 61.2936 160.627 64.6253Z" fill="#501A89"/>
<path d="M92.0024 123.474C91.5273 124.182 91.1746 124.721 90.8071 125.249C85.6137 132.718 78.449 136.915 69.1016 137.48C66.9114 137.613 65.6641 136.897 65.3374 135.377C64.8956 133.321 66.1504 131.974 68.6079 131.884C75.7725 131.621 81.3817 128.574 85.4763 122.938C87.8373 119.686 89.0215 116.02 89.1032 112.016C89.1477 109.849 90.1315 108.843 92.0062 108.85C93.9291 108.853 94.8275 109.878 94.9165 112.21C95.1393 118.227 97.6859 123.168 102.367 127.064C106.046 130.126 110.352 131.74 115.226 131.884C117.658 131.956 118.835 132.966 118.712 134.856C118.601 136.646 117.179 137.631 114.825 137.472C105.222 136.825 97.8307 132.592 92.7597 124.635C92.5407 124.3 92.3217 123.97 92.0024 123.474Z" fill="#501A89"/>
<path d="M23.4264 38.6415C25.4645 38.6415 27.5025 38.6055 29.5405 38.6487C31.6899 38.6954 32.7739 39.7125 32.733 41.5418C32.6922 43.2669 31.6194 44.2373 29.5442 44.2553C25.4088 44.2912 21.2696 44.2876 17.1342 44.2553C15.0628 44.2373 13.8043 43.1196 13.7969 41.4232C13.7895 39.673 14.9477 38.681 17.1305 38.6487C19.2279 38.6163 21.3253 38.6415 23.4264 38.6415Z" fill="#501A89"/>
<path d="M23.4262 26.404C25.4642 26.404 27.5022 26.3752 29.5365 26.4111C31.608 26.4471 32.6845 27.3887 32.7253 29.1173C32.7699 30.9502 31.7045 31.9816 29.5365 32.0032C25.4011 32.0499 21.2657 32.0427 17.1303 32.0032C15.0403 31.9816 13.7967 30.8675 13.793 29.1712C13.7893 27.4282 14.966 26.4327 17.1303 26.4075C19.2314 26.386 21.3288 26.404 23.4262 26.404Z" fill="#501A89"/>
<path d="M23.3661 14.1805C25.4635 14.1805 27.561 14.1553 29.6584 14.1877C31.6148 14.22 32.6542 15.1401 32.7247 16.8078C32.8027 18.6048 31.8152 19.6903 29.7846 19.719C25.4672 19.7837 21.1462 19.7837 16.8288 19.719C14.9021 19.6903 13.7328 18.4575 13.7996 16.8078C13.8627 15.1904 14.969 14.22 16.8882 14.1877C19.045 14.1553 21.2056 14.1805 23.3661 14.1805Z" fill="#501A89"/>
<path d="M160.715 44.2657C158.621 44.2657 156.527 44.3017 154.433 44.255C152.373 44.2118 151.308 43.2522 151.274 41.5271C151.237 39.7014 152.314 38.6735 154.463 38.652C158.651 38.6124 162.838 38.6124 167.022 38.652C169.071 38.6735 170.162 39.6691 170.207 41.3762C170.251 43.1516 169.108 44.2118 166.992 44.255C164.902 44.2981 162.808 44.2657 160.715 44.2657Z" fill="#501A89"/>
<path d="M160.761 26.4037C162.854 26.4037 164.948 26.3749 167.042 26.4109C169.065 26.4468 170.175 27.4388 170.208 29.146C170.242 30.8712 169.169 31.9674 167.16 31.9961C162.851 32.0536 158.541 32.0572 154.231 31.9925C152.233 31.9638 151.213 30.8532 151.272 29.0813C151.328 27.4244 152.375 26.454 154.297 26.4109C156.451 26.3677 158.607 26.4037 160.761 26.4037Z" fill="#501A89"/>
<path d="M160.821 14.1811C162.915 14.1811 165.005 14.1523 167.099 14.1882C169.092 14.2206 170.21 15.2485 170.21 16.9592C170.21 18.6196 169.189 19.6906 167.281 19.7194C162.911 19.7841 158.542 19.7841 154.173 19.7158C152.227 19.6871 151.27 18.6664 151.273 16.9556C151.277 15.1982 152.335 14.217 154.362 14.1846C156.511 14.1559 158.668 14.1811 160.821 14.1811Z" fill="#501A89"/>
</svg>
