<svg width="674" height="532" viewBox="0 0 674 532" fill="none" xmlns="http://www.w3.org/2000/svg">
<path d="M387.583 472.027L229.164 470.067L229.627 466.146L237.288 401.456H376.412L386.649 466.146L387.428 471.047L387.583 472.027Z" fill="#D0D2D5"/>
<path opacity="0.1" d="M387.428 471.046H308.373L229.164 470.066L229.627 466.146H386.649L387.428 471.046Z" fill="black"/>
<path d="M412.971 467.126H202.762V472.027H412.971V467.126Z" fill="#D0D2D5"/>
<path d="M613.529 12.9077C613.537 11.2323 613.204 9.57171 612.548 8.02072C611.891 6.46973 610.925 5.05871 609.703 3.86822C608.482 2.67774 607.03 1.7311 605.429 1.08236C603.829 0.433628 602.112 0.0954978 600.376 0.0872803H13.3252C11.5887 0.0944709 9.87068 0.431838 8.26934 1.08011C6.668 1.72839 5.21471 2.67487 3.9925 3.86546C2.77028 5.05605 1.8031 6.46741 1.14623 8.01891C0.489361 9.57041 0.155669 11.2316 0.164223 12.9077V356.353H613.529V12.9077Z" fill="#444053"/>
<path d="M0.164062 352.942V393.168C0.164062 396.537 1.55066 399.768 4.01881 402.15C6.48697 404.532 9.8345 405.87 13.325 405.87H600.376C603.865 405.868 607.21 404.529 609.677 402.147C612.143 399.765 613.529 396.535 613.529 393.168V352.942H0.164062Z" fill="#D0D2D5"/>
<path opacity="0.1" d="M591.187 21.651H25.5508V330.399H591.187V21.651Z" fill="#6C63FF"/>
<path d="M309.895 390.604C311.972 390.605 314.022 390.152 315.891 389.277C317.76 388.402 319.399 387.129 320.684 385.554C321.074 385.074 321.429 384.568 321.748 384.041L314.225 382.849L322.349 382.912C323.133 381.273 323.56 379.497 323.605 377.692C323.649 375.888 323.311 374.094 322.609 372.42L311.699 377.909L321.764 370.774C320.818 369.208 319.549 367.846 318.036 366.774C316.522 365.701 314.796 364.94 312.966 364.538C311.135 364.135 309.237 364.101 307.392 364.435C305.547 364.77 303.792 365.468 302.237 366.484C300.683 367.501 299.361 368.815 298.354 370.345C297.348 371.875 296.678 373.588 296.386 375.378C296.093 377.169 296.186 378.998 296.657 380.753C297.127 382.507 297.967 384.15 299.122 385.578C300.407 387.147 302.045 388.415 303.91 389.286C305.776 390.156 307.822 390.607 309.895 390.604Z" fill="#6C63FF"/>
<path opacity="0.1" d="M323.605 405.87L386.802 467.126L377.11 405.87H323.605Z" fill="black"/>
<path d="M411.32 77.3545H44.2763C43.1098 77.3545 42.1641 78.2673 42.1641 79.3932V290.165C42.1641 291.291 43.1098 292.204 44.2763 292.204H411.32C412.487 292.204 413.432 291.291 413.432 290.165V79.3932C413.432 78.2673 412.487 77.3545 411.32 77.3545Z" fill="white"/>
<path d="M591.351 21.6824H25.918V39.7172H591.351V21.6824Z" fill="white"/>
<path d="M43.9699 24.8188H28.9891C28.6392 24.8188 28.3555 25.0927 28.3555 25.4305V35.1849C28.3555 35.5227 28.6392 35.7965 28.9891 35.7965H43.9699C44.3198 35.7965 44.6036 35.5227 44.6036 35.1849V25.4305C44.6036 25.0927 44.3198 24.8188 43.9699 24.8188Z" fill="#6C63FF"/>
<path opacity="0.3" d="M391.841 24.8188H222.178C221.918 24.8188 221.707 25.0225 221.707 25.2736V35.3418C221.707 35.5929 221.918 35.7965 222.178 35.7965H391.841C392.101 35.7965 392.312 35.5929 392.312 35.3418V25.2736C392.312 25.0225 392.101 24.8188 391.841 24.8188Z" fill="#6C63FF"/>
<path d="M387.249 31.4371H386.834L386.68 31.3116C387.201 30.7145 387.489 29.9596 387.492 29.1788C387.487 28.5374 387.286 27.9118 386.913 27.3809C386.54 26.85 386.013 26.4376 385.397 26.1957C384.782 25.9539 384.106 25.8934 383.455 26.0219C382.804 26.1505 382.207 26.4622 381.739 26.9179C381.272 27.3736 380.954 27.9528 380.828 28.5824C380.701 29.212 380.77 29.8637 381.026 30.4554C381.283 31.0471 381.715 31.5521 382.269 31.9069C382.822 32.2616 383.473 32.4501 384.137 32.4486C384.946 32.4438 385.727 32.1665 386.347 31.6644L386.501 31.7899V32.1977L389.101 34.7068L389.913 33.9227L387.249 31.4371ZM384.129 31.4371C383.664 31.4386 383.209 31.3068 382.821 31.0584C382.434 30.81 382.132 30.4562 381.953 30.0418C381.774 29.6274 381.727 29.1711 381.818 28.7308C381.908 28.2905 382.132 27.886 382.461 27.5686C382.789 27.2512 383.209 27.0352 383.665 26.948C384.121 26.8608 384.594 26.9064 385.023 27.0788C385.452 27.2513 385.819 27.543 386.076 27.9169C386.334 28.2907 386.47 28.7299 386.469 29.1788C386.471 29.4759 386.412 29.7705 386.295 30.0454C386.178 30.3204 386.006 30.5702 385.788 30.7803C385.57 30.9904 385.312 31.1567 385.027 31.2694C384.742 31.3822 384.437 31.4391 384.129 31.4371Z" fill="#444053"/>
<path d="M583.226 35.7965C586.367 35.7965 588.913 33.3391 588.913 30.3077C588.913 27.2763 586.367 24.8188 583.226 24.8188C580.085 24.8188 577.539 27.2763 577.539 30.3077C577.539 33.3391 580.085 35.7965 583.226 35.7965Z" fill="#6C63FF"/>
<path d="M491.074 59.3198H442.216C441.126 59.3198 440.242 60.1729 440.242 61.2252V91.9158C440.242 92.9681 441.126 93.8212 442.216 93.8212H491.074C492.165 93.8212 493.049 92.9681 493.049 91.9158V61.2252C493.049 60.1729 492.165 59.3198 491.074 59.3198Z" fill="white"/>
<path d="M574.606 59.3198H507.355C507.081 59.3198 506.859 59.534 506.859 59.7981V64.3304C506.859 64.5945 507.081 64.8087 507.355 64.8087H574.606C574.879 64.8087 575.101 64.5945 575.101 64.3304V59.7981C575.101 59.534 574.879 59.3198 574.606 59.3198Z" fill="white"/>
<path d="M574.606 71.0817H507.355C507.081 71.0817 506.859 71.2958 506.859 71.56V76.0922C506.859 76.3563 507.081 76.5705 507.355 76.5705H574.606C574.879 76.5705 575.101 76.3563 575.101 76.0922V71.56C575.101 71.2958 574.879 71.0817 574.606 71.0817Z" fill="white"/>
<path d="M574.606 82.8434H507.355C507.081 82.8434 506.859 83.0575 506.859 83.3217V87.8539C506.859 88.1181 507.081 88.3322 507.355 88.3322H574.606C574.879 88.3322 575.101 88.1181 575.101 87.8539V83.3217C575.101 83.0575 574.879 82.8434 574.606 82.8434Z" fill="white"/>
<path d="M491.074 113.425H442.216C441.126 113.425 440.242 114.278 440.242 115.33V146.021C440.242 147.073 441.126 147.926 442.216 147.926H491.074C492.165 147.926 493.049 147.073 493.049 146.021V115.33C493.049 114.278 492.165 113.425 491.074 113.425Z" fill="white"/>
<path d="M574.606 113.425H507.355C507.081 113.425 506.859 113.639 506.859 113.903V118.435C506.859 118.699 507.081 118.913 507.355 118.913H574.606C574.879 118.913 575.101 118.699 575.101 118.435V113.903C575.101 113.639 574.879 113.425 574.606 113.425Z" fill="white"/>
<path d="M574.606 125.186H507.355C507.081 125.186 506.859 125.401 506.859 125.665V130.197C506.859 130.461 507.081 130.675 507.355 130.675H574.606C574.879 130.675 575.101 130.461 575.101 130.197V125.665C575.101 125.401 574.879 125.186 574.606 125.186Z" fill="white"/>
<path d="M574.565 136.948H507.396C507.099 136.948 506.859 137.18 506.859 137.466V141.92C506.859 142.205 507.099 142.437 507.396 142.437H574.565C574.861 142.437 575.101 142.205 575.101 141.92V137.466C575.101 137.18 574.861 136.948 574.565 136.948Z" fill="white"/>
<path d="M491.074 167.529H442.216C441.126 167.529 440.242 168.382 440.242 169.434V200.125C440.242 201.177 441.126 202.03 442.216 202.03H491.074C492.165 202.03 493.049 201.177 493.049 200.125V169.434C493.049 168.382 492.165 167.529 491.074 167.529Z" fill="white"/>
<path d="M574.565 167.529H507.396C507.099 167.529 506.859 167.761 506.859 168.046V172.5C506.859 172.786 507.099 173.018 507.396 173.018H574.565C574.861 173.018 575.101 172.786 575.101 172.5V168.046C575.101 167.761 574.861 167.529 574.565 167.529Z" fill="white"/>
<path d="M574.565 179.291H507.396C507.099 179.291 506.859 179.522 506.859 179.808V184.262C506.859 184.548 507.099 184.779 507.396 184.779H574.565C574.861 184.779 575.101 184.548 575.101 184.262V179.808C575.101 179.522 574.861 179.291 574.565 179.291Z" fill="white"/>
<path d="M574.565 191.052H507.396C507.099 191.052 506.859 191.284 506.859 191.57V196.024C506.859 196.31 507.099 196.541 507.396 196.541H574.565C574.861 196.541 575.101 196.31 575.101 196.024V191.57C575.101 191.284 574.861 191.052 574.565 191.052Z" fill="white"/>
<path d="M491.074 221.633H442.216C441.126 221.633 440.242 222.486 440.242 223.538V254.229C440.242 255.281 441.126 256.134 442.216 256.134H491.074C492.165 256.134 493.049 255.281 493.049 254.229V223.538C493.049 222.486 492.165 221.633 491.074 221.633Z" fill="white"/>
<path d="M574.565 221.633H507.396C507.099 221.633 506.859 221.865 506.859 222.15V226.604C506.859 226.89 507.099 227.122 507.396 227.122H574.565C574.861 227.122 575.101 226.89 575.101 226.604V222.15C575.101 221.865 574.861 221.633 574.565 221.633Z" fill="white"/>
<path d="M574.565 233.395H507.396C507.099 233.395 506.859 233.626 506.859 233.912V238.366C506.859 238.652 507.099 238.884 507.396 238.884H574.565C574.861 238.884 575.101 238.652 575.101 238.366V233.912C575.101 233.626 574.861 233.395 574.565 233.395Z" fill="white"/>
<path d="M574.565 245.156H507.396C507.099 245.156 506.859 245.388 506.859 245.674V250.128C506.859 250.414 507.099 250.645 507.396 250.645H574.565C574.861 250.645 575.101 250.414 575.101 250.128V245.674C575.101 245.388 574.861 245.156 574.565 245.156Z" fill="white"/>
<path d="M491.074 275.738H442.216C441.126 275.738 440.242 276.591 440.242 277.643V308.334C440.242 309.386 441.126 310.239 442.216 310.239H491.074C492.165 310.239 493.049 309.386 493.049 308.334V277.643C493.049 276.591 492.165 275.738 491.074 275.738Z" fill="white"/>
<path d="M574.565 275.738H507.396C507.099 275.738 506.859 275.969 506.859 276.255V280.709C506.859 280.995 507.099 281.226 507.396 281.226H574.565C574.861 281.226 575.101 280.995 575.101 280.709V276.255C575.101 275.969 574.861 275.738 574.565 275.738Z" fill="white"/>
<path d="M574.565 287.5H507.396C507.099 287.5 506.859 287.731 506.859 288.017V292.471C506.859 292.757 507.099 292.988 507.396 292.988H574.565C574.861 292.988 575.101 292.757 575.101 292.471V288.017C575.101 287.731 574.861 287.5 574.565 287.5Z" fill="white"/>
<path d="M574.565 299.261H507.396C507.099 299.261 506.859 299.492 506.859 299.778V304.232C506.859 304.518 507.099 304.75 507.396 304.75H574.565C574.861 304.75 575.101 304.518 575.101 304.232V299.778C575.101 299.492 574.861 299.261 574.565 299.261Z" fill="white"/>
<path opacity="0.1" d="M179.258 134.29H95.7188V138.469H179.258V134.29Z" fill="#6C63FF"/>
<path opacity="0.1" d="M111.187 112.193H103.145V134.29H111.187V112.193Z" fill="#6C63FF"/>
<path opacity="0.1" d="M122.941 112.193H114.898V134.29H122.941V112.193Z" fill="#6C63FF"/>
<path opacity="0.1" d="M134.699 112.193H126.656V134.29H134.699V112.193Z" fill="#6C63FF"/>
<path opacity="0.1" d="M146.453 112.193H138.41V134.29H146.453V112.193Z" fill="#6C63FF"/>
<path opacity="0.1" d="M158.211 112.193H150.168V134.29H158.211V112.193Z" fill="#6C63FF"/>
<path opacity="0.1" d="M169.973 112.193H161.93V134.29H169.973V112.193Z" fill="#6C63FF"/>
<path opacity="0.1" d="M111.187 116.373H103.145V118.764H111.187V116.373Z" fill="#6C63FF"/>
<path opacity="0.1" d="M122.941 116.373H114.898V118.764H122.941V116.373Z" fill="#6C63FF"/>
<path opacity="0.1" d="M134.699 116.373H126.656V118.764H134.699V116.373Z" fill="#6C63FF"/>
<path opacity="0.1" d="M146.453 116.373H138.41V118.764H146.453V116.373Z" fill="#6C63FF"/>
<path opacity="0.1" d="M158.211 116.373H150.168V118.764H158.211V116.373Z" fill="#6C63FF"/>
<path opacity="0.1" d="M169.973 116.373H161.93V118.764H169.973V116.373Z" fill="#6C63FF"/>
<path opacity="0.1" d="M111.187 127.123H103.145V129.514H111.187V127.123Z" fill="#6C63FF"/>
<path opacity="0.1" d="M122.941 127.123H114.898V129.514H122.941V127.123Z" fill="#6C63FF"/>
<path opacity="0.1" d="M134.699 127.123H126.656V129.514H134.699V127.123Z" fill="#6C63FF"/>
<path opacity="0.1" d="M146.453 127.123H138.41V129.514H146.453V127.123Z" fill="#6C63FF"/>
<path opacity="0.1" d="M158.211 127.123H150.168V129.514H158.211V127.123Z" fill="#6C63FF"/>
<path opacity="0.1" d="M169.973 127.123H161.93V129.514H169.973V127.123Z" fill="#6C63FF"/>
<path opacity="0.1" d="M362.414 145.04H278.875V149.219H362.414V145.04Z" fill="#6C63FF"/>
<path opacity="0.1" d="M294.344 122.944H286.301V145.04H294.344V122.944Z" fill="#6C63FF"/>
<path opacity="0.1" d="M306.098 122.944H298.055V145.04H306.098V122.944Z" fill="#6C63FF"/>
<path opacity="0.1" d="M317.855 122.944H309.812V145.04H317.855V122.944Z" fill="#6C63FF"/>
<path opacity="0.1" d="M329.617 122.944H321.574V145.04H329.617V122.944Z" fill="#6C63FF"/>
<path opacity="0.1" d="M341.375 122.944H333.332V145.04H341.375V122.944Z" fill="#6C63FF"/>
<path opacity="0.1" d="M353.129 122.944H345.086V145.04H353.129V122.944Z" fill="#6C63FF"/>
<path opacity="0.1" d="M294.344 127.123H286.301V129.514H294.344V127.123Z" fill="#6C63FF"/>
<path opacity="0.1" d="M306.098 127.123H298.055V129.514H306.098V127.123Z" fill="#6C63FF"/>
<path opacity="0.1" d="M317.855 127.123H309.812V129.514H317.855V127.123Z" fill="#6C63FF"/>
<path opacity="0.1" d="M329.617 127.123H321.574V129.514H329.617V127.123Z" fill="#6C63FF"/>
<path opacity="0.1" d="M341.375 127.123H333.332V129.514H341.375V127.123Z" fill="#6C63FF"/>
<path opacity="0.1" d="M353.129 127.123H345.086V129.514H353.129V127.123Z" fill="#6C63FF"/>
<path opacity="0.1" d="M294.344 137.873H286.301V140.265H294.344V137.873Z" fill="#6C63FF"/>
<path opacity="0.1" d="M306.098 137.873H298.055V140.265H306.098V137.873Z" fill="#6C63FF"/>
<path opacity="0.1" d="M317.855 137.873H309.812V140.265H317.855V137.873Z" fill="#6C63FF"/>
<path opacity="0.1" d="M329.617 137.873H321.574V140.265H329.617V137.873Z" fill="#6C63FF"/>
<path opacity="0.1" d="M341.375 137.873H333.332V140.265H341.375V137.873Z" fill="#6C63FF"/>
<path opacity="0.1" d="M353.129 137.873H345.086V140.265H353.129V137.873Z" fill="#6C63FF"/>
<path opacity="0.1" d="M362.414 175.495H278.875V179.674H362.414V175.495Z" fill="#6C63FF"/>
<path opacity="0.1" d="M294.344 153.399H286.301V175.496H294.344V153.399Z" fill="#6C63FF"/>
<path opacity="0.1" d="M306.098 153.399H298.055V175.496H306.098V153.399Z" fill="#6C63FF"/>
<path opacity="0.1" d="M317.855 153.399H309.812V175.496H317.855V153.399Z" fill="#6C63FF"/>
<path opacity="0.1" d="M329.617 153.399H321.574V175.496H329.617V153.399Z" fill="#6C63FF"/>
<path opacity="0.1" d="M341.375 153.399H333.332V175.496H341.375V153.399Z" fill="#6C63FF"/>
<path opacity="0.1" d="M353.129 153.399H345.086V175.496H353.129V153.399Z" fill="#6C63FF"/>
<path opacity="0.1" d="M294.344 157.578H286.301V159.969H294.344V157.578Z" fill="#6C63FF"/>
<path opacity="0.1" d="M306.098 157.578H298.055V159.969H306.098V157.578Z" fill="#6C63FF"/>
<path opacity="0.1" d="M317.855 157.578H309.812V159.969H317.855V157.578Z" fill="#6C63FF"/>
<path opacity="0.1" d="M329.617 157.578H321.574V159.969H329.617V157.578Z" fill="#6C63FF"/>
<path opacity="0.1" d="M341.375 157.578H333.332V159.969H341.375V157.578Z" fill="#6C63FF"/>
<path opacity="0.1" d="M353.129 157.578H345.086V159.969H353.129V157.578Z" fill="#6C63FF"/>
<path opacity="0.1" d="M294.344 168.329H286.301V170.72H294.344V168.329Z" fill="#6C63FF"/>
<path opacity="0.1" d="M306.098 168.329H298.055V170.72H306.098V168.329Z" fill="#6C63FF"/>
<path opacity="0.1" d="M317.855 168.329H309.812V170.72H317.855V168.329Z" fill="#6C63FF"/>
<path opacity="0.1" d="M329.617 168.329H321.574V170.72H329.617V168.329Z" fill="#6C63FF"/>
<path opacity="0.1" d="M341.375 168.329H333.332V170.72H341.375V168.329Z" fill="#6C63FF"/>
<path opacity="0.1" d="M353.129 168.329H345.086V170.72H353.129V168.329Z" fill="#6C63FF"/>
<path opacity="0.1" d="M146.966 181.549C146.343 180.778 145.773 179.969 145.26 179.126L157.292 177.221L144.293 177.315C143.046 174.695 142.366 171.857 142.293 168.975C142.22 166.092 142.757 163.226 143.871 160.55L161.297 169.27L145.203 157.853C146.7 155.317 148.724 153.108 151.148 151.364C153.572 149.619 156.344 148.377 159.289 147.716C162.234 147.055 165.288 146.988 168.261 147.52C171.234 148.053 174.061 149.173 176.564 150.81C179.067 152.447 181.193 154.565 182.807 157.033C184.421 159.501 185.49 162.264 185.945 165.149C186.4 168.034 186.232 170.979 185.452 173.798C184.672 176.618 183.297 179.251 181.412 181.533C182.391 182.726 183.23 184.02 183.914 185.391L168.3 193.232L184.946 187.846C186.11 191.177 186.397 194.735 185.78 198.2C185.163 201.665 183.662 204.927 181.412 207.692C183.962 210.813 185.551 214.565 185.996 218.517C186.44 222.469 185.723 226.462 183.926 230.04C182.129 233.617 179.324 236.633 175.834 238.744C172.343 240.854 168.308 241.973 164.189 241.973C160.07 241.973 156.034 240.854 152.544 238.744C149.053 236.633 146.249 233.617 144.452 230.04C142.655 226.462 141.937 222.469 142.382 218.517C142.827 214.565 144.415 210.813 146.966 207.692C143.928 203.961 142.276 199.354 142.276 194.609C142.276 189.864 143.928 185.256 146.966 181.526V181.549Z" fill="#6C63FF"/>
<path opacity="0.1" d="M186.107 194.627C186.108 199.368 184.454 203.97 181.412 207.691C183.962 210.812 185.551 214.564 185.996 218.516C186.44 222.468 185.723 226.462 183.926 230.039C182.129 233.616 179.324 236.632 175.834 238.743C172.343 240.853 168.308 241.973 164.189 241.973C160.07 241.973 156.034 240.853 152.544 238.743C149.053 236.632 146.249 233.616 144.452 230.039C142.655 226.462 141.937 222.468 142.382 218.516C142.827 214.564 144.415 210.812 146.966 207.691C144.017 204.108 186.107 192.252 186.107 194.627Z" fill="#6C63FF"/>
<path opacity="0.2" d="M167.697 247.587C167.735 247.643 167.771 247.701 167.803 247.76H160.361C160.402 247.705 160.426 247.642 160.467 247.587C159.826 246.512 159.495 245.291 159.508 244.051C159.505 243.201 159.656 242.357 159.955 241.557C160.369 241.62 160.881 241.691 161.474 241.753C163.2 241.92 164.939 241.92 166.665 241.753C167.164 241.706 167.676 241.644 168.201 241.565C168.197 241.578 168.197 241.592 168.201 241.604C168.497 242.391 168.645 243.222 168.64 244.059C168.656 245.295 168.331 246.513 167.697 247.587Z" fill="#3F3D56"/>
<path opacity="0.1" d="M140.956 247.76H99.523C99.4336 247.533 99.3524 247.29 99.2793 247.054C97.8195 242.523 97.9885 237.649 99.7586 233.223C95.7138 230.523 92.726 226.591 91.2748 222.056C89.8236 217.521 89.9932 212.647 91.7564 208.217C90.9238 207.664 90.1337 207.053 89.3923 206.39L100.295 201.144L87.8975 204.939C85.904 202.793 84.3858 200.276 83.4359 197.542C82.486 194.809 82.1243 191.918 82.3731 189.045L101.716 192.417L82.8524 186.089C83.5032 183.236 84.7587 180.543 86.5401 178.181C88.3214 175.819 90.59 173.839 93.2031 172.364C95.8161 170.889 98.7171 169.953 101.724 169.613C104.73 169.273 107.777 169.538 110.672 170.39C113.567 171.242 116.249 172.663 118.547 174.564C120.846 176.465 122.712 178.805 124.028 181.436C125.344 184.067 126.081 186.932 126.194 189.851C126.307 192.771 125.792 195.681 124.683 198.4C125.992 199.278 127.198 200.291 128.282 201.419L115.755 213.345L130.013 203.449C132.149 206.303 133.515 209.626 133.986 213.117C134.457 216.608 134.018 220.158 132.71 223.445C136.644 226.074 139.58 229.874 141.069 234.264C142.557 238.654 142.518 243.394 140.956 247.76Z" fill="#6C63FF"/>
<path opacity="0.1" d="M140.953 247.76H99.5204C99.4311 247.532 99.3498 247.289 99.2767 247.054C97.817 242.523 97.9859 237.649 99.756 233.222C95.8565 230.619 132.439 207.291 133.162 209.565C134.622 214.099 134.453 218.975 132.683 223.405C136.63 226.034 139.576 229.839 141.07 234.237C142.564 238.636 142.523 243.386 140.953 247.76Z" fill="#6C63FF"/>
<path opacity="0.1" d="M328.417 219.108C325.901 223.185 322.034 226.323 317.442 228.016C317.638 229.525 317.668 231.049 317.531 232.564L299.975 231.545L317.125 235.136C316.62 237.392 315.737 239.553 314.509 241.534C313.014 243.96 311.024 246.068 308.66 247.729H284.759V248.333H260.387C260.435 248.129 260.484 247.933 260.541 247.729C261.43 244.485 263.106 241.491 265.429 238.995C267.753 236.499 270.658 234.571 273.905 233.372C273.282 228.665 274.315 223.892 276.838 219.819C279.362 215.747 283.23 212.611 287.822 210.914C287.693 209.944 287.633 208.967 287.643 207.99L298.976 212.31L287.765 205.951C288.095 203.085 289.029 200.314 290.508 197.809C291.988 195.304 293.982 193.117 296.368 191.382L306.694 207.519L298.952 189.751C303.169 187.499 308.037 186.65 312.805 187.335C317.572 188.021 321.972 190.203 325.326 193.544C328.68 196.886 330.8 201.2 331.359 205.821C331.917 210.442 330.884 215.111 328.417 219.108Z" fill="#6C63FF"/>
<path opacity="0.1" d="M314.509 241.565C313.014 243.991 311.024 246.099 308.66 247.76H284.759V248.364H260.387C260.435 248.16 260.484 247.964 260.541 247.76C261.43 244.516 263.106 241.522 265.429 239.026C267.753 236.53 270.658 234.602 273.905 233.403C273.702 231.835 278.422 232.07 284.718 233.089C297.059 235.089 315.346 240.217 314.509 241.565Z" fill="#6C63FF"/>
<path d="M210.912 185.101C210.912 185.101 213.918 200.783 207.207 205.903C200.497 211.024 212.894 241.714 233.351 238.131C253.807 234.547 262.142 208.805 262.142 208.805C262.142 208.805 241.653 204.712 249.249 183.909L210.912 185.101Z" fill="#EE8E9E"/>
<path opacity="0.1" d="M210.912 185.101C210.912 185.101 213.918 200.783 207.207 205.903C200.497 211.024 212.894 241.714 233.351 238.131C253.807 234.547 262.142 208.805 262.142 208.805C262.142 208.805 241.653 204.712 249.249 183.909L210.912 185.101Z" fill="black"/>
<path d="M229.019 196.612C247.752 196.612 262.937 181.955 262.937 163.875C262.937 145.794 247.752 131.137 229.019 131.137C210.287 131.137 195.102 145.794 195.102 163.875C195.102 181.955 210.287 196.612 229.019 196.612Z" fill="#EE8E9E"/>
<path d="M284.756 226.111V248.364H172.758V227.122C172.758 224.429 173.58 221.795 175.121 219.549C176.663 217.304 178.856 215.547 181.426 214.498L184.635 213.18C192.759 209.84 202.63 205.692 205.855 203.967C206.208 203.797 206.541 203.589 206.846 203.348C208.609 201.646 208.26 203.857 208.26 203.857C208.26 203.857 208.211 204.281 208.179 205.01C207.984 210.02 208.731 229.71 232.64 228.071C255.964 226.503 257.012 211.275 256.777 206.798C256.763 206.383 256.728 205.97 256.671 205.559C258.284 205.929 259.863 206.428 261.391 207.049C266.265 208.789 273.463 211.581 275.389 212.898C275.99 213.306 276.721 213.729 277.517 214.161C278.42 214.647 279.265 215.228 280.036 215.894C281.521 217.181 282.709 218.757 283.523 220.517C284.336 222.277 284.756 224.183 284.756 226.111Z" fill="#6C63FF"/>
<path opacity="0.1" d="M261.394 207.049C259.42 215.878 253.221 232.415 230.88 232.846C207.076 233.301 205.695 210.452 205.85 203.967C206.208 203.801 206.544 203.593 206.849 203.348C208.62 201.646 208.263 203.857 208.263 203.857C208.263 203.857 205.265 229.945 232.635 228.071C260.005 226.197 256.641 205.567 256.641 205.567C256.641 205.441 258.68 206.123 261.394 207.049Z" fill="black"/>
<path d="M188.869 165.513C189.995 165.242 191.18 165.302 192.27 165.686C193.361 166.071 194.307 166.761 194.986 167.67C196.221 169.34 196.408 171.355 196.563 173.284C198.033 173.582 198.862 171.975 199 170.759C199.544 165.811 199.585 160.769 201.307 155.986C203.029 151.203 206.791 146.577 212.567 144.75C214.541 144.09 216.65 143.896 218.717 144.185C219.944 144.381 221.097 144.797 222.316 144.969C226.54 145.644 231.13 143.715 235.087 145.056C237.573 145.903 239.149 147.855 240.311 149.807C240.816 150.86 241.503 151.823 242.342 152.654C244.023 154.112 246.655 154.489 249.068 154.943C251.481 155.398 254.113 156.19 255.145 157.986C256.071 159.609 255.389 161.483 255.08 163.239C254.603 166.022 255.085 168.879 256.453 171.371C256.9 172.155 257.81 173.104 258.89 172.845C259.374 172.687 259.783 172.367 260.044 171.943C262.814 168.195 262.741 163.318 266.218 159.938C267.38 158.809 268.883 157.931 270.012 156.802C270.867 155.965 271.493 154.937 271.836 153.81C272.179 152.682 272.228 151.491 271.978 150.341C271.352 147.753 269.208 145.636 267.477 143.362C265.23 140.481 263.593 137.201 262.66 133.709C262.497 133.303 262.497 132.853 262.66 132.447C262.988 132.035 263.411 131.702 263.895 131.475C264.836 130.865 265.516 129.946 265.806 128.888C266.096 127.83 265.977 126.706 265.471 125.727C264.488 123.79 262.327 122.316 259.889 121.438C257.417 120.654 254.865 120.128 252.277 119.87C250.571 120.105 248.573 119.172 248.045 117.854C247.809 117.266 247.809 116.631 247.573 116.043C247.254 115.453 246.792 114.945 246.226 114.563C245.661 114.181 245.008 113.935 244.324 113.848C242.871 113.621 241.383 113.723 239.977 114.146C238.353 114.585 236.508 115.243 235.103 114.475C234.364 114.075 233.957 113.346 233.161 113.016C231.537 112.358 229.863 113.691 228.701 114.789C227.582 115.94 226.207 116.833 224.68 117.4C223.873 117.696 223.01 117.821 222.149 117.766C221.288 117.71 220.45 117.476 219.692 117.078C218.579 116.396 218.018 115.298 217.133 114.428C215.46 112.988 213.32 112.156 211.08 112.076C208.777 111.958 206.47 112.201 204.248 112.797C200.007 113.795 195.957 115.435 192.249 117.658C190.383 118.648 188.801 120.068 187.642 121.791C186.957 123.112 186.603 124.571 186.611 126.049C186.432 130.683 188.024 135.56 192.176 138.806C189.641 139.826 188.788 142.327 188.195 144.546C187.244 148.09 186.294 151.689 186.651 155.296C186.83 157.163 187.358 159.029 187.074 160.887C186.846 161.762 186.72 162.659 186.7 163.561C186.819 164.058 187.09 164.509 187.476 164.857C187.862 165.204 188.347 165.433 188.869 165.513Z" fill="#454B69"/>
<g opacity="0.1">
<path opacity="0.1" d="M271.449 148.882C271.084 149.651 270.59 150.355 269.986 150.968C268.857 152.113 267.354 152.999 266.192 154.104C262.715 157.46 262.788 162.369 260.018 166.117C259.759 166.541 259.349 166.859 258.864 167.011C257.808 167.278 256.898 166.352 256.427 165.537C255.89 164.544 255.484 163.49 255.217 162.4C255.16 162.675 255.103 162.949 255.054 163.184C254.577 165.967 255.059 168.824 256.427 171.316C256.874 172.1 257.784 173.049 258.864 172.79C259.348 172.632 259.758 172.312 260.018 171.888C262.788 168.14 262.715 163.263 266.192 159.883C267.354 158.754 268.857 157.876 269.986 156.747C270.841 155.91 271.468 154.882 271.811 153.755C272.154 152.627 272.202 151.436 271.952 150.286C271.828 149.804 271.659 149.335 271.449 148.882Z" fill="black"/>
<path opacity="0.1" d="M263.876 125.672C263.391 125.897 262.967 126.23 262.641 126.644C262.479 127.048 262.479 127.495 262.641 127.899C262.962 129.117 263.372 130.312 263.868 131.474C264.81 130.865 265.489 129.945 265.779 128.888C266.069 127.83 265.95 126.706 265.444 125.727C265.286 125.404 265.095 125.097 264.875 124.809C264.587 125.142 264.25 125.432 263.876 125.672Z" fill="black"/>
<path opacity="0.1" d="M192.225 132.941C189.347 130.652 187.451 127.414 186.904 123.853C186.758 124.556 186.676 125.269 186.66 125.986C186.474 129.41 187.409 132.803 189.333 135.685C189.915 134.459 190.944 133.482 192.225 132.941Z" fill="black"/>
<path opacity="0.1" d="M255.08 157.46C255.389 155.696 256.071 153.822 255.145 152.207C254.113 150.403 251.481 149.619 249.068 149.164C246.655 148.709 244.023 148.325 242.342 146.875C241.503 146.044 240.816 145.081 240.311 144.028C239.165 142.076 237.573 140.108 235.087 139.276C231.13 137.936 226.54 139.857 222.316 139.19C221.097 138.994 219.944 138.586 218.717 138.406C216.65 138.115 214.54 138.308 212.567 138.971C206.791 140.806 203.029 145.432 201.307 150.207C199.585 154.982 199.544 160.024 199 164.98C198.862 166.188 198.033 167.803 196.563 167.505C196.408 165.568 196.221 163.584 194.987 161.883C194.306 160.976 193.359 160.287 192.269 159.904C191.179 159.521 189.994 159.462 188.869 159.734C188.187 159.587 187.58 159.212 187.155 158.676C187.244 159.394 187.244 160.121 187.155 160.84C186.927 161.715 186.802 162.612 186.781 163.514C186.886 164.015 187.144 164.476 187.522 164.835C187.9 165.194 188.38 165.436 188.902 165.529C190.028 165.257 191.212 165.317 192.303 165.702C193.393 166.086 194.339 166.777 195.019 167.685C196.254 169.355 196.441 171.371 196.595 173.3C198.066 173.597 198.894 171.99 199.032 170.775C199.577 165.827 199.617 160.785 201.34 156.002C203.062 151.219 206.823 146.592 212.599 144.765C214.573 144.105 216.682 143.912 218.749 144.201C219.976 144.397 221.13 144.812 222.348 144.985C226.573 145.659 231.163 143.73 235.119 145.071C237.605 145.918 239.181 147.87 240.343 149.823C240.848 150.876 241.535 151.838 242.374 152.669C244.056 154.128 246.688 154.504 249.101 154.959C251.514 155.414 253.975 156.151 255.056 157.813C255.015 157.696 255.056 157.578 255.08 157.46Z" fill="black"/>
<path opacity="0.1" d="M187.121 155.022C187.255 153.561 187.165 152.089 186.853 150.654C186.615 152.169 186.563 153.706 186.699 155.233C186.699 155.626 186.788 156.018 186.845 156.402C186.934 155.939 187.056 155.484 187.121 155.022Z" fill="black"/>
</g>
<path d="M147.363 280.003V265.85C147.363 265.744 147.407 265.642 147.485 265.567C147.562 265.492 147.668 265.45 147.778 265.45H149.443C149.553 265.45 149.658 265.492 149.736 265.567C149.814 265.642 149.857 265.744 149.857 265.85V271.738L156.617 265.693C156.776 265.565 156.968 265.483 157.173 265.456C157.378 265.428 157.587 265.457 157.776 265.539C157.965 265.621 158.126 265.752 158.241 265.918C158.357 266.084 158.421 266.277 158.428 266.477V279.297C158.421 279.497 158.357 279.691 158.241 279.857C158.126 280.022 157.965 280.154 157.776 280.235C157.587 280.317 157.378 280.346 157.173 280.319C156.968 280.292 156.776 280.209 156.617 280.082L149.857 274.075V279.933C149.857 280.039 149.814 280.14 149.736 280.215C149.658 280.29 149.553 280.332 149.443 280.332H147.778C147.679 280.334 147.584 280.302 147.508 280.241C147.432 280.181 147.381 280.097 147.363 280.003Z" fill="#444053"/>
<path d="M310.681 265.85V280.003C310.681 280.056 310.67 280.109 310.649 280.158C310.628 280.207 310.596 280.252 310.557 280.289C310.518 280.326 310.471 280.355 310.42 280.375C310.369 280.395 310.314 280.404 310.259 280.403H308.634C308.524 280.403 308.419 280.361 308.341 280.286C308.263 280.211 308.22 280.109 308.22 280.003V274.115L301.46 280.152C301.301 280.279 301.107 280.361 300.902 280.388C300.697 280.415 300.488 280.386 300.299 280.304C300.11 280.223 299.948 280.092 299.832 279.927C299.715 279.761 299.649 279.568 299.641 279.368V266.501C299.649 266.301 299.715 266.108 299.832 265.942C299.948 265.777 300.11 265.646 300.299 265.565C300.488 265.483 300.697 265.454 300.902 265.481C301.107 265.508 301.301 265.59 301.46 265.717L308.22 271.723V265.873C308.22 265.767 308.263 265.666 308.341 265.591C308.419 265.516 308.524 265.474 308.634 265.474H310.259C310.366 265.471 310.47 265.509 310.549 265.58C310.627 265.65 310.675 265.747 310.681 265.85Z" fill="#444053"/>
<path d="M226.263 280.615H222.957C222.526 280.615 222.113 280.45 221.808 280.156C221.503 279.861 221.332 279.463 221.332 279.047V267.332C221.332 266.916 221.503 266.517 221.808 266.223C222.113 265.929 222.526 265.764 222.957 265.764H226.263C226.694 265.764 227.108 265.929 227.412 266.223C227.717 266.517 227.888 266.916 227.888 267.332V279.047C227.888 279.463 227.717 279.861 227.412 280.156C227.108 280.45 226.694 280.615 226.263 280.615ZM236.743 279.047V267.332C236.743 266.916 236.572 266.517 236.267 266.223C235.963 265.929 235.549 265.764 235.119 265.764H231.78C231.349 265.764 230.935 265.929 230.631 266.223C230.326 266.517 230.155 266.916 230.155 267.332V279.047C230.155 279.463 230.326 279.861 230.631 280.156C230.935 280.45 231.349 280.615 231.78 280.615H235.086C235.302 280.619 235.517 280.582 235.718 280.505C235.919 280.428 236.102 280.313 236.256 280.167C236.41 280.021 236.533 279.847 236.617 279.654C236.7 279.462 236.743 279.255 236.743 279.047Z" fill="#444053"/>
<path opacity="0.6" d="M326.508 246.772H131.531V248.866H326.508V246.772Z" fill="#444053"/>
<path d="M191.736 252.779C194.576 252.779 196.879 250.556 196.879 247.815C196.879 245.074 194.576 242.852 191.736 242.852C188.896 242.852 186.594 245.074 186.594 247.815C186.594 250.556 188.896 252.779 191.736 252.779Z" fill="#444053"/>
<path d="M191.738 246.772H131.531V248.866H191.738V246.772Z" fill="#444053"/>
<path d="M625.536 483.075C652.219 483.075 673.85 479.059 673.85 474.105C673.85 469.151 652.219 465.135 625.536 465.135C598.853 465.135 577.223 469.151 577.223 474.105C577.223 479.059 598.853 483.075 625.536 483.075Z" fill="#6C63FF"/>
<path d="M624.731 477.398C627.836 477.398 630.353 474.218 630.353 470.294C630.353 466.371 627.836 463.19 624.731 463.19C621.626 463.19 619.109 466.371 619.109 470.294C619.109 474.218 621.626 477.398 624.731 477.398Z" fill="#3F3D56"/>
<path d="M624.731 468.71C627.836 468.71 630.353 465.529 630.353 461.605C630.353 457.682 627.836 454.501 624.731 454.501C621.626 454.501 619.109 457.682 619.109 461.605C619.109 465.529 621.626 468.71 624.731 468.71Z" fill="#3F3D56"/>
<path d="M624.731 460.03C627.836 460.03 630.353 456.849 630.353 452.926C630.353 449.002 627.836 445.822 624.731 445.822C621.626 445.822 619.109 449.002 619.109 452.926C619.109 456.849 621.626 460.03 624.731 460.03Z" fill="#3F3D56"/>
<path d="M624.731 451.341C627.836 451.341 630.353 448.16 630.353 444.237C630.353 440.313 627.836 437.133 624.731 437.133C621.626 437.133 619.109 440.313 619.109 444.237C619.109 448.16 621.626 451.341 624.731 451.341Z" fill="#3F3D56"/>
<path d="M624.731 442.654C627.836 442.654 630.353 439.473 630.353 435.55C630.353 431.626 627.836 428.445 624.731 428.445C621.626 428.445 619.109 431.626 619.109 435.55C619.109 439.473 621.626 442.654 624.731 442.654Z" fill="#3F3D56"/>
<path d="M624.731 433.965C627.836 433.965 630.353 430.784 630.353 426.861C630.353 422.937 627.836 419.757 624.731 419.757C621.626 419.757 619.109 422.937 619.109 426.861C619.109 430.784 621.626 433.965 624.731 433.965Z" fill="#3F3D56"/>
<path d="M624.731 425.277C627.836 425.277 630.353 422.097 630.353 418.173C630.353 414.25 627.836 411.069 624.731 411.069C621.626 411.069 619.109 414.25 619.109 418.173C619.109 422.097 621.626 425.277 624.731 425.277Z" fill="#3F3D56"/>
<path d="M645.781 358.737C646.548 357.79 647.248 356.795 647.877 355.757L633.092 353.405L649.08 353.523C650.611 350.301 651.446 346.813 651.534 343.27C651.622 339.727 650.961 336.204 649.591 332.916L628.16 343.658L647.934 329.63C646.082 326.539 643.589 323.849 640.612 321.728C637.635 319.606 634.238 318.1 630.631 317.301C627.025 316.503 623.286 316.43 619.649 317.087C616.012 317.745 612.554 319.118 609.491 321.121C606.428 323.124 603.825 325.715 601.845 328.732C599.864 331.749 598.549 335.127 597.98 338.656C597.412 342.185 597.602 345.789 598.54 349.244C599.478 352.699 601.142 355.93 603.431 358.737C602.239 360.197 601.21 361.774 600.36 363.442L619.549 373.063L599.093 366.437C597.656 370.534 597.301 374.913 598.058 379.176C598.816 383.439 600.662 387.453 603.431 390.855C600.307 394.69 598.364 399.297 597.825 404.148C597.285 408.999 598.171 413.899 600.38 418.287C602.589 422.675 606.033 426.375 610.318 428.963C614.602 431.552 619.555 432.925 624.61 432.925C629.665 432.925 634.618 431.552 638.903 428.963C643.187 426.375 646.631 422.675 648.84 418.287C651.05 413.899 651.935 408.999 651.395 404.148C650.856 399.297 648.913 394.69 645.789 390.855C649.521 386.271 651.55 380.61 651.55 374.78C651.55 368.95 649.521 363.29 645.789 358.706L645.781 358.737Z" fill="#6C63FF"/>
<path opacity="0.1" d="M597.672 374.812C597.66 380.643 599.69 386.307 603.432 390.886C600.308 394.722 598.365 399.328 597.826 404.179C597.286 409.03 598.172 413.93 600.381 418.318C602.59 422.707 606.034 426.406 610.319 428.995C614.603 431.583 619.556 432.956 624.611 432.956C629.666 432.956 634.619 431.583 638.904 428.995C643.189 426.406 646.632 422.707 648.841 418.318C651.051 413.93 651.936 409.03 651.397 404.179C650.857 399.328 648.914 394.722 645.791 390.886C649.398 386.471 597.672 371.895 597.672 374.812Z" fill="black"/>
<path opacity="0.1" d="M83.5998 531.361C128.019 531.361 164.028 523.988 164.028 514.894C164.028 505.8 128.019 498.427 83.5998 498.427C39.1807 498.427 3.17188 505.8 3.17188 514.894C3.17188 523.988 39.1807 531.361 83.5998 531.361Z" fill="#6C63FF"/>
<path d="M110.529 512.981C108.904 512.409 107.165 512.503 105.467 512.323C101.942 511.929 98.6592 510.392 96.1572 507.963C94.5481 506.393 93.2827 504.526 92.4364 502.474C92.9726 502.662 93.5088 502.858 94.0612 503.07C92.4364 499.408 94.1424 495.299 95.6373 491.598C98.172 485.325 100.569 479.018 102.827 472.677C108.514 456.611 113.388 439.901 113.283 422.807C113.283 416.628 112.105 410.787 111.877 404.616C111.707 400.036 112.438 395.465 112.405 390.878C112.405 390.235 112.405 389.6 112.357 388.957C113.81 387.729 114.952 386.195 115.694 384.474C116.436 382.753 116.759 380.89 116.638 379.03C116.555 378.06 116.412 377.097 116.207 376.144C115.92 374.49 115.54 372.851 115.07 371.236C114.534 369.534 113.803 367.903 113.177 366.241C111.967 363.018 111.146 359.662 110.114 356.384C110.497 356.422 110.87 356.52 111.219 356.674C110.959 356.38 110.78 356.027 110.699 355.647C110.093 353.561 109.765 351.408 109.724 349.241L110.415 348.943C110.726 346.827 110.613 344.674 110.082 342.599C110.472 339.236 111.081 335.848 111.455 332.5C111.593 331.245 111.536 329.669 110.342 329.364C110.098 327.568 110.001 325.749 109.903 323.937C109.562 317.617 109.223 311.3 108.888 304.985C108.546 298.642 108.205 292.306 108.075 285.955C107.986 281.924 107.937 277.753 106.946 273.895C107.117 272.046 106.921 270.183 106.369 268.406C104.858 263.787 100.162 260.126 95.4017 260.384C93.9818 258.424 92.2263 256.711 90.2104 255.319C91.1609 253.265 92.2983 251.147 93.2325 249.485C100.853 247.093 106.426 239.84 106.426 231.215C106.437 228.058 105.672 224.943 104.192 222.127C104.332 221.781 104.451 221.428 104.549 221.068C104.957 219.375 104.83 217.602 104.184 215.98C103.955 215.356 103.684 214.749 103.371 214.16C103.16 213.768 102.933 213.376 102.697 213L102.283 212.396C102.031 212.028 101.771 211.675 101.47 211.33C100.893 210.582 100.275 209.865 99.618 209.181C98.8091 208.336 97.9166 207.569 96.9534 206.892C95.647 205.954 94.1531 205.29 92.5664 204.939C91.6489 204.764 90.7149 204.683 89.7798 204.696C89.2193 204.696 88.6506 204.696 88.09 204.743C86.9527 204.806 85.8234 204.884 84.6942 204.876C84.3205 204.876 83.9386 204.876 83.5649 204.821C81.577 204.566 79.6112 204.17 77.6831 203.637L76.7082 203.441C76.3752 203.379 76.0502 203.324 75.7171 203.285C74.8259 203.17 73.9272 203.117 73.0281 203.128H72.1263C71.2256 203.17 70.3279 203.259 69.4372 203.394L68.5436 203.528C66.287 203.869 64.0876 204.499 62.0038 205.402C61.7357 205.519 61.4594 205.653 61.1914 205.794L61.0289 205.88C60.8095 205.99 60.5902 206.107 60.379 206.233L60.2571 206.303L59.5665 206.727L59.5097 206.766C53.0592 210.953 49.249 218.889 48.2823 226.761C47.2018 235.598 49.0946 244.506 50.9875 253.202L52.6936 261.043C52.7667 261.396 52.848 261.741 52.9211 262.094C50.5221 263.994 48.6771 266.464 47.5673 269.261C45.9425 273.181 45.9019 277.423 46.0319 281.673C46.0319 282.536 46.0806 283.398 46.17 284.261C45.9669 285.892 45.7882 287.531 45.6744 289.177C45.1626 296.783 46.1213 304.428 45.8694 312.05C45.6744 317.923 44.7564 323.812 45.2032 329.646C45.5932 334.821 47.0311 339.839 48.4529 344.834L50.5001 351.954C50.5665 352.322 50.7446 352.664 51.0119 352.934C51.3481 353.152 51.7595 353.234 52.1574 353.162C50.8257 356.082 49.7125 359.09 48.8266 362.163C48.2145 364.046 47.8114 365.986 47.6242 367.95C47.3561 371.541 48.2173 375.109 49.0784 378.599C50.3783 383.826 51.6727 389.074 52.9617 394.344C53.8716 398.029 54.7788 401.712 55.6833 405.392C57.4705 412.653 59.2659 419.961 59.599 427.434C59.7847 431.186 59.5121 434.947 58.7866 438.639C56.4428 449.693 56.102 461.056 57.7793 472.223C59.1351 481.644 61.3341 490.934 64.3516 499.988C65.0096 499.651 65.6758 499.338 66.3582 499.047L66.0739 499.557C65.1369 501.125 64.2704 502.733 63.4742 504.379C62.9375 505.45 62.4735 506.552 62.085 507.681C61.0451 510.817 60.8826 514.157 60.7364 517.459C60.662 518.093 60.72 518.736 60.907 519.348C61.3538 520.532 62.6374 521.136 63.8317 521.465C67.3412 522.43 70.9889 522.085 74.6366 521.63C74.6535 521.708 74.678 521.784 74.7097 521.858C75.1566 523.042 76.432 523.645 77.6344 523.975C82.655 525.355 87.9519 524.053 93.1269 523.583C98.3019 523.112 103.388 523.457 108.368 522.304C109.11 522.151 109.823 521.887 110.48 521.52C111.76 520.656 112.7 519.398 113.145 517.953C113.3 517.578 113.404 517.185 113.453 516.784C113.656 515.067 112.137 513.554 110.529 512.981ZM93.3463 440.364C93.0662 442.201 92.5192 443.99 91.7215 445.68C87.8135 453.701 85.0112 462.182 83.3862 470.905C82.32 476.668 81.7035 482.5 81.5421 488.352C81.4608 492.665 81.6314 497.181 79.771 501.055L80.4453 500.953C80.2341 501.329 80.031 501.737 79.836 502.035L79.7385 502.207C78.6133 500.358 77.8608 498.32 77.5206 496.201C77.5206 496.13 77.1551 496.076 76.5945 496.044C74.2979 483.658 73.5018 471.056 74.2223 458.493C74.2332 456.969 74.4518 455.453 74.8722 453.984C75.2866 452.722 75.9852 451.569 76.497 450.346C77.3086 448.291 77.8543 446.147 78.1218 443.963C79.0067 438.381 79.3493 432.732 79.1455 427.089C78.9505 421.764 80.226 416.472 81.3146 411.171C81.8345 408.654 82.3138 406.129 82.5738 403.604L82.6225 403.094C87.4561 410.791 90.834 419.255 92.5989 428.092C93.5801 432.11 93.833 436.262 93.3463 440.364ZM58.5754 327.043L58.8354 327.262C59.6206 327.929 60.3437 328.661 60.9964 329.45C61.3211 329.794 61.5552 330.208 61.6788 330.657C61.9225 331.802 60.9395 332.774 60.1352 333.613C59.7857 333.977 59.4576 334.359 59.1522 334.758C58.9789 332.186 58.7948 329.614 58.5998 327.043H58.5754Z" fill="url(#paint0_linear)"/>
<path d="M47.3327 277.894L46.4391 284.551C46.1385 286.809 45.8379 289.06 45.6754 291.326C45.1311 298.869 46.1385 306.444 45.8785 314.003C45.6673 319.821 44.7087 325.631 45.1717 331.442C45.5861 336.57 47.0971 341.557 48.6082 346.497L50.7529 353.554C50.8262 353.923 51.0131 354.262 51.2891 354.526C51.7024 354.762 52.1932 354.838 52.6621 354.738L62.1835 353.907C61.5742 351.209 60.8999 348.418 60.5587 345.65C60.2987 343.486 60.1443 341.306 59.9818 339.126C59.4781 332.336 58.9013 325.545 58.357 318.739L57.3415 306.82C56.9109 301.645 56.4641 296.446 55.1155 291.42C53.7623 286.343 51.0827 281.686 47.3327 277.894Z" fill="#6C63FF"/>
<path opacity="0.1" d="M47.3327 277.894L46.4391 284.551C46.1385 286.809 45.8379 289.06 45.6754 291.326C45.1311 298.869 46.1385 306.444 45.8785 314.003C45.6673 319.821 44.7087 325.631 45.1717 331.442C45.5861 336.57 47.0971 341.557 48.6082 346.497L50.7529 353.554C50.8262 353.923 51.0131 354.262 51.2891 354.526C51.7024 354.762 52.1932 354.838 52.6621 354.738L62.1835 353.907C61.5742 351.209 60.8999 348.418 60.5587 345.65C60.2987 343.486 60.1443 341.306 59.9818 339.126C59.4781 332.336 58.9013 325.545 58.357 318.739L57.3415 306.82C56.9109 301.645 56.4641 296.446 55.1155 291.42C53.7623 286.343 51.0827 281.686 47.3327 277.894Z" fill="black"/>
<path d="M64.2957 504.521C63.7368 505.582 63.2484 506.677 62.8334 507.798C61.7448 510.895 61.5823 514.22 61.4199 517.49C61.3481 518.12 61.4089 518.757 61.5986 519.364C62.0698 520.54 63.4184 521.136 64.6776 521.458C69.9501 522.83 75.5069 521.544 80.9256 521.073C86.3444 520.603 91.6981 520.948 96.93 519.811C97.7026 519.667 98.4496 519.416 99.1479 519.066C100.473 518.234 101.462 516.988 101.951 515.537C102.108 515.166 102.215 514.775 102.267 514.377C102.438 512.652 100.886 511.162 99.1966 510.597C97.5068 510.033 95.6627 510.119 93.8835 509.947C90.2192 509.585 86.7809 508.066 84.1018 505.626C81.4226 503.186 79.6523 499.962 79.0653 496.452C79.0003 496.076 70.2588 496.303 69.3164 496.789C68.244 497.361 67.5941 498.781 66.9848 499.745C66.0262 501.298 65.1298 502.89 64.2957 504.521Z" fill="#A26565"/>
<path opacity="0.1" d="M64.2957 504.521C63.7368 505.582 63.2484 506.677 62.8334 507.798C61.7448 510.895 61.5823 514.22 61.4199 517.49C61.3481 518.12 61.4089 518.757 61.5986 519.364C62.0698 520.54 63.4184 521.136 64.6776 521.458C69.9501 522.83 75.5069 521.544 80.9256 521.073C86.3444 520.603 91.6981 520.948 96.93 519.811C97.7026 519.667 98.4496 519.416 99.1479 519.066C100.473 518.234 101.462 516.988 101.951 515.537C102.108 515.166 102.215 514.775 102.267 514.377C102.438 512.652 100.886 511.162 99.1966 510.597C97.5068 510.033 95.6627 510.119 93.8835 509.947C90.2192 509.585 86.7809 508.066 84.1018 505.626C81.4226 503.186 79.6523 499.962 79.0653 496.452C79.0003 496.076 70.2588 496.303 69.3164 496.789C68.244 497.361 67.5941 498.781 66.9848 499.745C66.0262 501.298 65.1298 502.89 64.2957 504.521Z" fill="black"/>
<path d="M78.7981 507.014C78.2357 508.072 77.7472 509.164 77.3358 510.284C76.2391 513.421 76.0766 516.706 75.9222 519.976C75.8465 520.606 75.9073 521.244 76.1009 521.85C76.564 523.026 77.9126 523.622 79.1718 523.951C84.4443 525.316 90.0093 524.03 95.4199 523.559C100.83 523.089 106.2 523.434 111.424 522.297C112.2 522.145 112.948 521.881 113.642 521.513C114.969 520.682 115.958 519.436 116.445 517.984C116.602 517.612 116.709 517.222 116.762 516.824C116.932 515.107 115.381 513.609 113.691 513.044C112.001 512.48 110.157 512.574 108.378 512.393C104.715 512.031 101.278 510.513 98.5996 508.075C95.9209 505.637 94.1495 502.414 93.5595 498.907C93.4945 498.53 84.753 498.75 83.8107 499.236C82.7302 499.808 82.0802 501.228 81.4709 502.192C80.5448 503.784 79.6349 505.383 78.7981 507.014Z" fill="#A26565"/>
<path d="M116.599 423.717C116.713 440.662 111.611 457.222 105.624 473.116C103.252 479.421 100.736 485.67 98.0766 491.865C96.5005 495.534 94.7213 499.612 96.4111 503.234C91.5367 501.447 86.581 500.396 81.4548 501.219C83.4045 497.377 83.2177 492.908 83.3071 488.673C83.4725 482.87 84.1136 477.089 85.2243 471.383C86.945 462.7 89.8946 454.286 93.9902 446.378C94.8181 444.71 95.39 442.935 95.6881 441.109C96.3543 437.078 95.8343 432.938 94.9651 428.947C93.095 420.131 89.5411 411.729 84.4851 404.169L84.4363 404.67C84.1328 407.192 83.6936 409.697 83.1202 412.174C81.9747 417.42 80.6343 422.674 80.8374 427.951C81.0493 433.547 80.6901 439.149 79.765 444.676C79.4671 446.847 78.88 448.971 78.0183 450.996C77.4578 452.212 76.7266 453.349 76.2879 454.611C75.8488 456.064 75.6191 457.568 75.6055 459.081C74.9556 471.838 75.6055 484.792 78.3027 497.299C73.7776 496.954 69.2525 498.216 65.2067 500.176C62.0434 491.224 59.732 482.011 58.3013 472.654C56.5385 461.587 56.8965 450.302 59.3574 439.36C60.1244 435.711 60.411 431.983 60.2104 428.265C59.8611 420.855 57.9763 413.609 56.0997 406.411L53.24 395.433C51.886 390.206 50.532 385.002 49.178 379.822C48.2762 376.364 47.3663 372.827 47.6507 369.267C47.849 367.314 48.2741 365.389 48.918 363.528C50.9463 357.197 53.9802 351.208 57.9113 345.775C73.5664 346.622 89.4082 345.21 105.031 344.05C105.788 343.906 106.574 344.034 107.24 344.411C107.773 344.933 108.091 345.624 108.134 346.355L114.008 378.504C114.959 382.973 115.516 387.511 115.673 392.07C115.673 396.617 114.942 401.15 115.121 405.69C115.365 411.806 116.567 417.593 116.599 423.717Z" fill="#454B69"/>
<path opacity="0.1" d="M84.4512 404.671C84.1477 407.193 83.7084 409.697 83.1351 412.175C79.7311 406.49 76.059 400.946 72.9232 395.12C72.1108 393.623 71.3471 392.101 70.5753 390.58L68.26 386.032C67.8294 385.178 67.3988 384.323 67.0089 383.453C66.3739 382.202 65.8862 380.887 65.5547 379.532C66.6921 379.328 69.503 382.292 70.3479 383.068C72.0713 384.715 73.6986 386.454 75.2223 388.275C77.0729 390.299 78.7724 392.448 80.3079 394.705C82.2741 397.771 83.6758 401.143 84.4512 404.671Z" fill="black"/>
<path d="M97.4895 248.701C97.4895 248.701 88.7968 262.07 90.4053 264.869C92.0139 267.669 63.0273 262.384 63.0273 262.384C63.0273 262.384 78.8123 249.014 77.1957 243.416C75.579 237.817 97.4895 248.701 97.4895 248.701Z" fill="#EFB7B9"/>
<path d="M89.7653 252.747C100.619 252.747 109.417 244.255 109.417 233.779C109.417 223.303 100.619 214.811 89.7653 214.811C78.9118 214.811 70.1133 223.303 70.1133 233.779C70.1133 244.255 78.9118 252.747 89.7653 252.747Z" fill="#EFB7B9"/>
<path d="M97.7822 262.721C95.6779 259.903 92.823 257.687 89.52 256.307C87.6167 255.649 85.6485 255.182 83.6463 254.911L75.8067 253.578C73.8894 253.249 71.834 252.943 70.0467 253.704C69.143 254.151 68.32 254.736 67.6095 255.437C64.8879 257.875 62.2476 260.549 58.8274 261.961C57.8932 262.345 56.9183 262.627 55.984 263.011C52.1576 264.58 49.2979 267.92 47.6812 271.637C45.9752 275.51 45.9264 279.721 46.0564 283.932C46.0542 285.385 46.2039 286.836 46.5032 288.26C46.8943 289.617 47.3913 290.943 47.99 292.228C49.0701 294.977 49.9763 297.786 50.7034 300.641C52.7344 308.143 54.4242 315.723 55.7728 323.381C55.8872 324.478 56.221 325.543 56.7558 326.517C57.5132 327.493 58.4296 328.343 59.4692 329.034C60.2939 329.688 61.0528 330.415 61.7358 331.206C62.0762 331.53 62.3299 331.928 62.4751 332.367C62.7269 333.496 61.6627 334.468 60.8503 335.292C59.102 337.014 57.8381 339.138 57.1782 341.463C56.7708 341.94 56.5622 342.547 56.5933 343.164C56.7625 343.594 56.8265 344.056 56.7801 344.513C56.6202 344.929 56.3679 345.307 56.0409 345.619C55.666 346.09 55.3997 346.633 55.2596 347.212C55.1195 347.791 55.1089 348.392 55.2285 348.975C61.3179 351.528 67.835 353 74.4662 353.319C76.091 353.397 77.7158 353.397 79.3406 353.585C80.4942 353.726 81.6316 353.954 82.7852 354.087C84.4593 354.239 86.1421 354.281 87.8221 354.213C96.5717 354.04 105.573 353.828 113.608 350.48C114.363 346.505 112.73 342.451 111.707 338.53C110.082 332.257 109.676 325.835 108.457 319.507C107.645 315.187 106.426 310.929 105.736 306.577C105.045 302.225 104.923 297.717 106.126 293.482C107.222 289.734 107.555 285.908 108.693 282.168C109.83 278.427 110.626 274.373 109.343 270.672C107.718 266.093 102.787 262.463 97.7822 262.721Z" fill="#6C63FF"/>
<path d="M107.435 223.719C108.394 220.355 106.509 216.85 104.267 214.113C101.83 211.173 98.7264 208.523 94.9162 207.785C91.821 207.182 88.612 207.911 85.4598 207.668C82.6733 207.456 79.9924 206.484 77.2221 206.1C74.7085 205.838 72.169 205.931 69.683 206.374C67.3238 206.713 65.0177 207.334 62.8182 208.225C54.4504 211.808 49.5516 220.637 48.4142 229.396C47.2769 238.155 49.2673 246.984 51.2495 255.601L53.045 263.395C54.9135 271.511 56.782 279.658 57.2776 287.954C57.7731 296.25 56.847 304.766 53.313 312.34C64.7417 306.415 73.597 296.739 78.2782 285.061C79.5456 281.854 80.4879 278.521 81.9015 275.369C83.112 272.656 84.6637 270.084 85.7361 267.316C86.9482 264.192 87.53 260.873 87.4502 257.538C87.3852 255.029 86.9547 252.535 87.0278 250.026C87.1009 247.517 87.7671 244.906 89.5625 243.087C91.1873 241.479 93.4214 240.734 95.4768 239.691C98.7124 238.087 101.54 235.811 103.755 233.026C105.047 231.395 105.12 230.674 105.445 228.823C105.77 226.973 106.932 225.499 107.435 223.719Z" fill="#A26565"/>
<path d="M107.457 366.201C107.66 368.154 107.294 370.122 107.733 372.059C108.066 373.502 108.838 374.803 109.293 376.215C109.743 377.844 109.975 379.523 109.983 381.21C110.048 382.621 109.934 384.346 108.635 385.005C108.066 385.295 107.383 385.295 106.79 385.546C106.197 385.797 105.694 386.479 106.035 387.012C106.376 387.545 106.961 387.459 107.497 387.561C108.033 387.663 108.61 388.196 108.31 388.627C108.187 388.769 108.023 388.87 107.838 388.917C107.296 389.079 106.781 389.316 106.311 389.623C106.081 389.785 105.901 390.004 105.791 390.257C105.681 390.509 105.644 390.787 105.686 391.058C105.718 391.188 105.781 391.309 105.869 391.412C105.957 391.515 106.068 391.598 106.194 391.654C106.32 391.709 106.457 391.737 106.596 391.734C106.734 391.732 106.87 391.699 106.993 391.638C106.755 392.13 106.625 392.664 106.612 393.207C108.691 394.069 111.023 392.94 112.973 391.85C113.816 391.396 114.63 390.893 115.41 390.345C116.987 389.176 118.244 387.652 119.071 385.907C119.898 384.161 120.27 382.247 120.154 380.331C120.062 379.369 119.907 378.413 119.691 377.469C119.391 375.825 118.993 374.199 118.497 372.6C117.937 370.914 117.173 369.307 116.515 367.652C115.118 364.131 114.216 360.446 112.948 356.878C112.864 356.508 112.648 356.178 112.339 355.945C112.06 355.812 111.748 355.755 111.437 355.78C110.015 355.708 108.589 355.835 107.205 356.157C106.392 356.392 105.003 356.941 104.621 357.725C104.239 358.509 104.849 359.168 105.214 359.819C106.382 361.786 107.143 363.954 107.457 366.201Z" fill="#EFB7B9"/>
<path opacity="0.1" d="M106.135 270.923C106.552 271.336 106.902 271.806 107.175 272.319C109.969 277.22 110.002 283.077 110.132 288.668C110.278 294.941 110.636 301.214 110.993 307.526L112.057 326.345C112.163 328.141 112.26 329.936 112.528 331.716C113.779 332.022 113.828 333.59 113.69 334.853C112.788 342.521 110.554 350.418 112.878 357.796C112.967 358.175 113.155 358.525 113.422 358.815C112.242 358.459 110.98 358.442 109.791 358.768C108.629 359.004 107.508 359.419 106.338 359.678C104.859 360 103.186 360.141 102.178 361.246C101.037 357.932 100.127 354.547 99.4568 351.115C98.9044 347.979 98.75 344.748 97.4339 341.847C96.9059 340.679 96.191 339.597 95.541 338.475C92.1371 332.61 90.4635 325.984 88.8306 319.445C88.0978 316.345 87.922 313.146 88.3106 309.988C88.547 308.548 88.6827 307.094 88.7168 305.636C88.6179 304.098 88.4089 302.568 88.0913 301.057C87.4011 296.623 87.7256 292.097 89.0418 287.798C90.2604 283.806 91.3328 279.604 93.9162 276.248C96.4997 272.891 101.821 270.978 106.135 270.923Z" fill="black"/>
<path d="M107.099 270.296C107.516 270.711 107.867 271.184 108.139 271.699C110.934 276.592 110.966 282.457 111.096 288.048C111.242 294.321 111.6 300.594 111.957 306.867L113.022 325.686C113.127 327.481 113.225 329.277 113.493 331.057C114.744 331.363 114.793 332.931 114.646 334.194C113.753 341.862 111.519 349.751 113.834 357.137C113.924 357.516 114.111 357.866 114.378 358.156C113.198 357.799 111.936 357.783 110.747 358.109C109.585 358.345 108.464 358.76 107.294 359.011C105.816 359.34 104.142 359.474 103.135 360.579C101.996 357.25 101.095 353.849 100.437 350.401C99.885 347.265 99.7306 344.042 98.4145 341.141C97.8429 339.987 97.2112 338.862 96.5216 337.769C93.1095 331.904 91.4441 325.27 89.8111 318.731C89.0782 315.63 88.9024 312.432 89.2912 309.274C89.9031 306.318 89.8282 303.268 89.0718 300.343C88.3815 295.912 88.706 291.389 90.0224 287.091C91.241 283.1 92.3133 278.897 94.8968 275.541C97.4802 272.185 102.785 270.358 107.099 270.296Z" fill="#6C63FF"/>
<g opacity="0.1">
<path opacity="0.1" d="M104.266 214.113C101.829 211.173 98.7256 208.523 94.9155 207.785C91.8202 207.182 88.6112 207.911 85.4591 207.668C82.6726 207.456 79.9916 206.484 77.2213 206.1C74.7078 205.838 72.1682 205.931 69.6822 206.374C67.323 206.713 65.0169 207.334 62.8174 208.225C61.6293 208.738 60.4949 209.361 59.4297 210.083C61.3875 209.349 63.4224 208.823 65.4983 208.515C67.9815 208.071 70.5185 207.978 73.0293 208.24C75.8077 208.585 78.4806 209.55 81.2752 209.761C84.4192 210.005 87.6282 209.283 90.7316 209.879C94.5418 210.616 97.6614 213.274 100.074 216.215C102.325 218.944 104.201 222.449 103.251 225.82C102.747 227.592 101.577 229.145 101.26 230.972C100.943 232.799 100.862 233.544 99.5624 235.175C97.8958 237.266 95.8806 239.076 93.5994 240.53C94.2249 240.248 94.8667 239.966 95.476 239.66C98.7117 238.056 101.539 235.78 103.754 232.995C105.046 231.364 105.119 230.643 105.444 228.792C105.769 226.942 106.931 225.42 107.435 223.64C108.393 220.355 106.508 216.85 104.266 214.113Z" fill="black"/>
<path opacity="0.1" d="M89.5619 243.134C89.8984 242.797 90.2655 242.49 90.6587 242.216C88.782 243.094 86.8079 243.863 85.3699 245.353C83.5745 247.164 82.9327 249.783 82.8352 252.292C82.7378 254.801 83.2008 257.295 83.2577 259.796C83.3375 263.134 82.7557 266.455 81.5435 269.582C80.4712 272.35 78.9195 274.914 77.709 277.635C76.3035 280.771 75.3611 284.112 74.0938 287.319C70.0324 297.444 62.8208 306.106 53.4506 312.113C53.4019 312.215 53.3612 312.325 53.3125 312.426C64.7412 306.501 73.5965 296.825 78.2777 285.147C79.545 281.94 80.4874 278.607 81.901 275.455C83.1115 272.742 84.6632 270.17 85.7355 267.402C86.9477 264.278 87.5295 260.959 87.4497 257.624C87.3847 255.115 86.9541 252.621 87.0273 250.112C87.1004 247.603 87.7665 244.953 89.5619 243.134Z" fill="black"/>
</g>
<defs>
<linearGradient id="paint0_linear" x1="80.9002" y1="524.563" x2="80.9002" y2="203.151" gradientUnits="userSpaceOnUse">
<stop stop-color="#808080" stop-opacity="0.25"/>
<stop offset="0.54" stop-color="#808080" stop-opacity="0.12"/>
<stop offset="1" stop-color="#808080" stop-opacity="0.1"/>
</linearGradient>
</defs>
</svg>
