<svg width="77" height="75" viewBox="0 0 77 75" fill="none" xmlns="http://www.w3.org/2000/svg">
<path d="M53.1602 61.7243L48.2939 66.4853C37.3567 77.1935 19.688 77.3236 8.58163 66.8794C-2.9437 56.0411 -2.76242 37.9194 8.53732 26.8682C8.53732 26.8682 23.5714 12.199 27.3622 8.50216C27.7287 8.14351 28.333 8.13957 28.7036 8.50216L29.0581 8.84898C32.1117 11.8364 32.1117 16.692 29.0662 19.6794L15.0795 33.3949C7.73566 40.5797 7.27642 52.3048 14.4309 59.6709C21.8311 67.2853 34.1501 67.4115 41.6953 60.0217L46.4005 55.4183C46.3078 57.0618 46.904 58.7447 48.1891 60.002C49.5386 61.342 51.3837 61.9135 53.1602 61.7243Z" fill="white"/>
<path d="M75.0417 33.856C75.9522 34.7467 76.4074 35.9212 76.4074 37.0878C76.4074 38.2544 75.9522 39.4289 75.0417 40.3196L58.6017 56.4037C58.7951 54.6617 58.2069 52.8645 56.8453 51.5323C55.5562 50.2711 53.8401 49.6879 52.1562 49.7824L68.4351 33.856C70.256 32.0706 73.2128 32.0667 75.0417 33.856Z" fill="white"/>
<path d="M40.1399 41.6951L42.005 43.5199L68.1052 17.9847C69.9381 16.1915 72.9071 16.1915 74.736 17.9847C76.5689 19.778 76.5689 22.6827 74.736 24.472L52.8334 45.9003C49.0749 49.5775 43.9749 51.1382 39.0723 50.5746C37.888 50.4367 36.7157 50.1805 35.5797 49.7982C34.6894 49.5026 33.8273 49.1282 32.9894 48.6789C31.6318 47.9498 30.3508 47.0236 29.1987 45.8964C28.0465 44.7692 27.0999 43.5159 26.3546 42.1877C25.8954 41.368 25.5127 40.5245 25.2105 39.6535C24.6586 38.0849 24.3605 36.4493 24.3122 34.8058C24.1793 30.4666 25.8108 26.0879 29.1987 22.7733L51.1012 1.34494C52.9342 -0.448313 55.9031 -0.448313 57.732 1.34494C59.5649 3.13819 59.5649 6.04286 57.732 7.83217L31.6319 33.3673L33.497 35.1921L66.1957 3.20125C68.0287 1.408 70.9976 1.408 72.8265 3.20125C74.6595 4.9945 74.6595 7.89918 72.8265 9.68849L40.1399 41.6951Z" fill="white"/>
<path d="M54.8581 53.4714C56.2479 54.8312 56.1472 57.0934 54.564 58.3231C53.3676 59.2493 51.6152 59.2414 50.4308 58.2994C48.8678 57.0579 48.7792 54.8154 50.1609 53.4635C51.4541 52.1984 53.5569 52.1984 54.8581 53.4714Z" fill="white"/>
</svg>
