<svg width="2230" height="1349" viewBox="0 0 2230 1349" fill="none" xmlns="http://www.w3.org/2000/svg">
<path opacity="0.1" d="M1308.45 133.885C1164.08 129.055 1026.57 84.0356 895.274 34.8216C763.978 -14.3924 633.898 -68.9356 492.996 -95.0241C402.356 -111.801 298.703 -114.129 225.681 -67.2618C155.389 -22.1265 132.689 55.8694 120.493 128.113C111.305 182.521 105.904 239.7 131.055 290.704C148.533 326.046 179.564 355.771 201.028 389.632C275.664 507.492 222.95 652.806 141.997 767.856C104.13 821.842 60.0263 873.326 30.7498 930.793C1.47329 988.261 -12.0788 1054.08 13.5307 1112.68C38.9408 1170.78 99.447 1214.42 164.995 1245.11C298.145 1307.44 455.05 1325.29 608.049 1335.39C946.752 1357.67 1287.25 1348.05 1626.83 1338.43C1752.5 1334.84 1878.72 1331.2 2002.36 1312.44C2071 1302.03 2141.87 1285.51 2191.69 1245.59C2254.97 1194.91 2270.65 1109.1 2228.24 1045.5C2157.13 938.932 1960.49 912.458 1910.78 798.081C1883.42 735.13 1911.52 665.003 1951.28 606.612C2036.58 481.345 2179.55 371.47 2187.09 228.292C2192.27 129.96 2123.53 31.474 2017.27 -15.0465C1905.86 -63.818 1751.41 -57.6807 1669.22 23.0472C1584.64 106.18 1435.92 138.156 1308.45 133.885Z" fill="#7C00FF"/>
</svg>
